<?xml version="1.0" standalone="no"?>
<!DOCTYPE svg PUBLIC "-//W3C//DTD SVG 20010904//EN"
 "http://www.w3.org/TR/2001/REC-SVG-20010904/DTD/svg10.dtd">
<svg version="1.0" xmlns="http://www.w3.org/2000/svg"
 width="1000.000000pt" height="684.000000pt" viewBox="0 0 1142.000000 1280.000000"
 preserveAspectRatio="xMidYMid meet">
<metadata>
Created by potrace 1.15, written by Peter Selinger 2001-2017
</metadata>
<g transform="translate(0.000000,1280.000000) scale(0.100000,-0.100000)"
fill="#ececec" stroke="none">
<path d="M3080 12434 c-30 -8 -95 -37 -145 -65 -158 -87 -249 -129 -301 -138
-78 -15 -131 -40 -196 -92 -73 -58 -138 -141 -178 -225 -53 -111 -163 -184
-375 -249 -184 -57 -285 -95 -338 -126 -68 -41 -282 -223 -504 -427 -250 -231
-261 -252 -329 -592 -63 -319 -99 -413 -203 -535 -72 -83 -111 -153 -143 -255
-19 -63 -23 -96 -23 -210 1 -153 18 -234 81 -369 76 -162 163 -398 224 -607
44 -151 65 -196 152 -325 95 -143 321 -422 366 -453 74 -51 150 -67 311 -67
79 0 158 3 176 7 48 9 158 -22 290 -80 173 -77 187 -81 305 -80 78 0 148 9
273 34 l168 33 52 -21 c129 -53 195 -59 385 -36 l53 7 44 -47 c26 -29 67 -95
104 -170 97 -195 173 -254 351 -266 108 -8 156 -27 226 -92 24 -22 56 -66 71
-97 24 -48 28 -67 27 -136 -2 -113 -24 -186 -114 -376 -101 -212 -114 -259
-114 -379 0 -136 19 -187 132 -353 165 -243 249 -441 271 -639 28 -247 63
-885 52 -925 -25 -87 -82 -168 -270 -383 -118 -136 -153 -204 -177 -350 -40
-244 -4 -433 171 -895 40 -104 78 -215 85 -245 8 -34 15 -183 20 -395 9 -397
5 -379 128 -665 134 -310 172 -468 151 -620 -6 -41 -8 -97 -5 -125 13 -116
114 -247 214 -278 30 -10 113 -17 231 -21 246 -9 325 -21 346 -53 36 -54 56
-56 414 -39 179 9 409 15 511 14 164 -2 195 1 273 21 206 53 426 170 692 368
175 130 296 257 365 382 69 125 132 176 300 241 156 60 234 119 270 203 19 44
23 78 29 246 9 225 18 258 92 330 112 109 247 176 564 281 272 90 312 107 369
160 105 97 155 258 197 635 9 86 9 155 0 310 -27 477 -6 727 82 941 48 119
143 232 267 319 30 22 188 138 350 259 162 121 363 262 445 314 319 200 457
310 574 457 98 122 351 543 448 745 49 103 55 120 50 162 -16 132 -150 248
-274 235 -26 -2 -91 -13 -143 -22 -57 -11 -143 -18 -215 -18 -102 0 -132 4
-200 26 -96 31 -165 78 -210 141 -39 56 -53 91 -106 276 -62 220 -74 240 -233
389 -121 113 -229 308 -292 531 -17 59 -55 148 -100 235 -86 166 -114 247
-114 329 0 149 -52 319 -166 548 -81 162 -130 281 -154 372 -10 39 -61 186
-113 326 -102 275 -197 554 -216 636 -31 132 -166 200 -431 219 -187 13 -407
108 -810 347 l-196 116 -387 43 c-363 41 -388 43 -413 28 l-27 -17 -63 72
c-118 135 -236 214 -354 236 -75 14 -127 42 -182 96 -100 98 -119 190 -69 335
54 155 53 223 -1 284 -30 35 -31 35 -112 35 -147 0 -241 16 -641 110 -245 58
-397 71 -545 47 -71 -12 -93 -10 -410 35 -184 26 -353 47 -376 47 -55 1 -123
-23 -226 -81 l-86 -48 -67 15 c-88 21 -153 46 -212 82 -60 37 -121 46 -193 27z"/>
<path d="M1061 11171 c-8 -6 -9 -11 -3 -15 6 -3 14 -1 17 5 9 14 2 20 -14 10z"/>
<path d="M10160 2549 c-124 -4 -264 -9 -313 -11 -48 -2 -87 1 -87 5 0 17 -18
1 -90 -83 -175 -203 -289 -303 -413 -361 -60 -28 -77 -31 -169 -32 -91 -2
-110 -5 -161 -30 -75 -37 -146 -108 -182 -181 -23 -47 -30 -78 -35 -156 -11
-157 -44 -227 -195 -415 -157 -195 -190 -267 -190 -415 0 -80 4 -103 23 -143
34 -68 102 -132 167 -156 71 -27 93 -26 168 3 l62 25 330 -13 330 -13 49 25
c58 32 108 88 215 247 45 66 135 194 202 285 159 217 426 620 527 793 101 173
107 198 98 413 -3 88 -9 174 -12 192 -6 31 -8 32 -53 30 -25 0 -147 -5 -271
-9z"/>
</g>
</svg>
