<?xml version="1.0" standalone="no"?>
<!DOCTYPE svg PUBLIC "-//W3C//DTD SVG 20010904//EN"
 "http://www.w3.org/TR/2001/REC-SVG-20010904/DTD/svg10.dtd">
<svg version="1.0" xmlns="http://www.w3.org/2000/svg"
 width="1000.000000pt" height="684.000000pt" viewBox="0 0 1280.000000 788.000000"
 preserveAspectRatio="xMidYMid meet">
<metadata>
Created by potrace 1.15, written by Peter Selinger 2001-2017
</metadata>
<g transform="translate(0.000000,788.000000) scale(0.100000,-0.100000)"
fill="#ececec" stroke="none">
<path d="M978 7832 c-3 -40 -7 -49 -31 -60 -27 -13 -28 -16 -22 -62 6 -42 4
-50 -16 -64 -54 -38 -123 -12 -234 87 l-50 45 -22 -66 -23 -67 25 -35 c40 -58
43 -146 11 -259 -15 -51 -31 -142 -36 -201 -6 -60 -14 -120 -20 -135 -5 -14
-10 -50 -10 -78 0 -35 -13 -87 -41 -162 -22 -60 -53 -148 -69 -194 -16 -46
-40 -102 -54 -125 -13 -22 -40 -74 -61 -114 -22 -43 -56 -91 -82 -115 -61 -56
-76 -88 -68 -146 5 -41 3 -49 -19 -70 -27 -25 -27 -50 0 -145 8 -27 14 -78 14
-112 0 -53 -4 -67 -27 -95 -20 -23 -29 -48 -34 -91 -6 -51 -12 -65 -51 -106
-52 -55 -70 -113 -44 -141 21 -23 44 -80 57 -142 11 -49 10 -52 -16 -79 -25
-26 -27 -34 -22 -82 3 -29 1 -69 -5 -89 -9 -33 -7 -40 26 -86 20 -28 49 -79
65 -114 27 -59 28 -65 14 -97 -14 -34 -14 -35 18 -68 18 -19 36 -34 41 -34 4
0 10 16 14 35 7 38 31 47 54 20 12 -14 9 -70 -6 -109 -4 -10 3 -19 20 -27 25
-12 25 -12 9 -40 -21 -35 -24 -35 -62 -3 l-31 26 0 -81 0 -80 49 -41 c27 -23
52 -49 55 -57 8 -21 -19 -80 -43 -92 -11 -6 -25 -20 -31 -32 -9 -16 -5 -26 22
-58 18 -22 39 -56 47 -78 18 -52 105 -225 136 -271 29 -43 30 -54 9 -131 -10
-34 -14 -70 -10 -86 9 -37 47 -69 98 -84 24 -7 68 -26 100 -42 47 -24 58 -35
69 -66 15 -47 16 -47 116 -78 83 -26 93 -35 93 -85 0 -22 11 -38 47 -67 97
-79 120 -103 148 -154 23 -44 28 -63 27 -123 -1 -94 11 -123 57 -136 20 -5
131 -17 246 -25 116 -9 223 -18 239 -22 17 -3 58 -32 95 -67 36 -34 91 -77
121 -95 30 -19 80 -51 110 -71 67 -46 483 -278 595 -332 51 -25 89 -37 105
-34 33 6 487 -50 561 -69 31 -8 69 -15 84 -15 26 0 27 2 22 39 -11 81 29 93
286 84 l178 -6 35 -55 c19 -29 106 -127 193 -215 176 -181 223 -250 251 -373
21 -91 54 -135 133 -183 33 -20 76 -50 96 -67 97 -84 135 -68 212 89 30 60 38
68 77 81 32 11 69 14 140 10 187 -10 177 -6 212 -79 22 -46 48 -80 90 -117 32
-28 65 -65 71 -82 7 -17 27 -51 44 -76 18 -25 46 -74 63 -110 17 -36 58 -101
91 -145 34 -44 72 -109 87 -145 14 -36 48 -110 74 -165 27 -55 56 -117 64
-137 15 -38 74 -78 115 -78 11 0 34 -14 51 -30 17 -17 36 -30 43 -30 7 0 49
-4 94 -10 61 -7 92 -16 120 -35 21 -14 45 -25 55 -25 37 0 34 84 -6 155 -20
34 -24 60 -29 166 -6 114 -5 130 16 180 29 71 35 79 63 89 13 5 32 26 43 47
10 21 33 57 50 81 26 35 37 42 65 42 20 0 40 8 50 19 17 19 17 20 -13 36 -20
10 -31 23 -31 37 0 20 4 20 67 15 82 -6 101 1 172 62 31 26 91 71 133 99 42
29 84 62 93 74 15 22 14 23 -7 26 -25 4 -48 27 -48 49 0 7 12 15 28 19 15 3
34 8 42 10 11 3 19 -7 25 -28 14 -45 35 -46 157 -3 57 20 135 42 173 50 64 13
75 12 125 -5 55 -20 160 -25 210 -11 24 7 24 7 5 15 l-20 8 20 8 c11 5 45 9
75 9 46 0 61 -4 94 -29 24 -18 47 -28 57 -25 13 5 26 -6 48 -37 49 -71 58 -78
101 -78 32 0 43 5 62 30 25 35 52 39 70 10 9 -14 24 -20 49 -20 52 0 60 26 19
60 -16 14 -30 33 -30 43 0 23 5 22 48 -13 48 -38 152 -80 220 -87 90 -10 60
29 -64 81 -67 28 -79 37 -79 57 0 16 11 30 35 45 19 13 44 31 55 41 19 17 19
18 -13 27 -28 8 -36 6 -53 -12 -25 -27 -31 -27 -47 -2 -21 34 -53 40 -86 17
-26 -19 -31 -19 -55 -6 -35 20 -39 60 -9 88 37 35 65 37 125 7 66 -32 76 -32
118 0 41 31 143 63 179 57 14 -3 51 -2 82 2 50 6 58 10 82 45 15 22 29 39 32
40 3 0 13 -23 23 -51 10 -27 25 -53 34 -56 16 -6 49 24 72 64 9 16 11 16 31
-2 19 -17 23 -18 30 -4 5 9 18 27 29 40 l19 23 30 -32 c33 -36 44 -39 61 -18
16 19 89 34 130 28 22 -3 36 -12 43 -28 13 -28 49 -31 88 -9 37 21 50 18 50
-11 0 -18 13 -38 39 -63 21 -20 42 -46 46 -58 8 -28 34 -29 83 -4 20 11 50 24
65 30 17 7 43 36 70 77 l42 66 47 -5 c65 -8 102 -30 137 -80 27 -40 108 -107
234 -194 88 -61 101 -115 75 -301 -6 -45 -9 -84 -7 -86 2 -2 16 -6 31 -10 26
-6 27 -5 22 23 -6 26 -3 31 21 37 29 7 40 -2 51 -44 5 -18 -1 -31 -25 -56 -17
-17 -31 -38 -31 -45 0 -7 17 -33 38 -59 21 -26 43 -59 50 -74 6 -15 35 -42 64
-61 62 -40 99 -81 133 -148 22 -42 35 -53 107 -91 72 -37 83 -46 83 -69 0 -15
15 -48 32 -73 31 -43 35 -46 78 -46 37 0 51 6 84 35 41 38 69 113 58 157 -3
12 0 49 8 82 8 34 15 109 15 167 0 119 4 109 -111 256 -96 122 -200 287 -197
313 3 26 7 27 47 15 l24 -7 -24 33 c-13 19 -58 71 -100 115 -114 122 -186 243
-226 384 -38 131 -38 135 -18 244 23 119 44 185 75 238 16 25 32 64 36 85 5
27 21 51 54 83 25 25 57 65 71 89 17 31 49 61 109 102 133 93 125 84 113 123
-10 33 -8 39 53 129 35 53 68 98 74 102 5 3 38 11 72 16 37 6 71 18 82 29 18
18 18 19 -4 54 l-22 37 27 20 c14 12 40 46 57 76 17 29 46 66 65 81 31 23 44
26 99 24 70 -2 111 9 120 33 10 24 -16 74 -39 77 -15 2 -24 13 -30 41 -8 34
-12 37 -44 37 -40 0 -40 14 0 44 l27 20 44 -21 44 -22 37 62 c52 88 64 145 40
197 -10 23 -31 52 -47 65 -25 22 -28 30 -28 89 0 67 -10 86 -35 66 -11 -9 -19
-4 -42 28 -19 28 -38 42 -60 47 -38 7 -46 17 -53 70 -4 32 -10 41 -27 43 -28
4 -29 13 -3 30 36 22 25 59 -36 121 -31 31 -60 66 -65 79 -12 32 -11 70 2 74
9 3 8 23 -1 77 -20 121 2 210 61 245 17 10 32 16 34 14 2 -2 -5 -36 -15 -76
-20 -77 -15 -122 15 -122 12 0 15 -14 15 -74 0 -79 7 -93 39 -76 16 8 21 6 26
-9 3 -10 24 -47 45 -80 31 -48 40 -71 40 -106 0 -25 -4 -45 -10 -45 -5 0 -16
-14 -25 -30 -12 -23 -13 -35 -5 -50 6 -11 14 -20 18 -20 14 0 32 39 25 56 -4
11 2 23 16 33 19 15 25 34 35 117 8 64 20 115 35 143 26 51 22 83 -14 107 -26
17 -93 107 -140 187 -23 40 -26 51 -14 58 27 17 54 6 59 -26 4 -23 16 -36 55
-57 27 -14 52 -33 55 -42 10 -29 40 9 50 65 6 33 25 76 49 111 35 53 40 67 46
143 9 110 4 131 -39 145 -50 16 -61 33 -46 70 17 40 20 41 66 25 55 -20 67
-19 59 5 -5 17 -2 20 27 20 20 1 45 10 63 25 17 14 73 41 125 61 52 20 100 41
105 46 16 15 -41 58 -76 58 -24 0 -29 -4 -29 -25 0 -13 -10 -34 -22 -45 -39
-37 -143 -80 -207 -86 -60 -7 -61 -6 -61 18 0 29 17 48 43 48 10 0 33 16 50
36 18 20 46 42 64 49 18 7 56 32 86 54 47 36 61 41 106 41 70 0 154 46 182
101 16 32 25 39 48 39 16 0 34 7 41 14 6 8 27 20 46 26 19 6 34 14 34 18 0 3
-36 49 -79 102 l-79 97 1 59 c1 42 -4 66 -16 84 -24 35 -22 59 18 160 19 49
35 98 35 108 0 32 38 72 69 72 19 0 40 14 71 45 24 25 49 45 56 45 18 0 24 25
24 94 0 48 4 67 18 79 26 24 35 21 28 -8 -6 -23 -3 -25 24 -25 18 0 33 6 36
15 4 8 16 15 29 15 16 0 40 20 77 62 29 34 75 82 102 107 l48 46 -33 28 c-19
16 -49 35 -66 43 -18 8 -33 20 -34 27 -1 6 -2 21 -3 31 -1 13 -13 23 -40 30
-29 8 -41 18 -46 36 -4 14 -17 44 -28 67 -12 23 -22 48 -22 56 0 8 -14 62 -31
121 -38 135 -86 211 -143 227 -37 10 -40 9 -63 -20 -14 -18 -46 -38 -79 -50
-67 -26 -67 -26 -54 -2 15 28 13 31 -20 31 -25 0 -30 -4 -30 -25 0 -13 -14
-45 -32 -69 -30 -43 -32 -52 -39 -168 -4 -79 -13 -138 -24 -166 -17 -39 -17
-43 -2 -60 23 -25 21 -39 -8 -94 -14 -26 -25 -57 -25 -70 -1 -37 -143 -228
-169 -228 -10 0 -53 -9 -97 -20 -43 -12 -111 -25 -150 -30 -39 -5 -118 -25
-175 -44 -57 -19 -124 -37 -149 -41 -110 -16 -125 -28 -235 -196 -56 -84 -74
-104 -107 -117 -52 -20 -49 -48 5 -44 40 4 44 -2 25 -43 -10 -23 -8 -29 20
-58 29 -30 30 -33 16 -59 -10 -19 -23 -28 -40 -28 -24 0 -51 -22 -84 -69 -19
-26 -121 -45 -230 -42 -63 2 -90 -4 -174 -33 -55 -20 -103 -39 -108 -44 -6 -6
8 -29 31 -56 58 -67 57 -103 -6 -159 -27 -23 -75 -70 -109 -103 -77 -77 -148
-133 -219 -174 -30 -17 -79 -56 -108 -86 -63 -67 -93 -84 -148 -84 -35 0 -46
-6 -78 -40 -20 -22 -43 -40 -50 -40 -7 0 -41 17 -75 38 -33 20 -79 39 -101 42
-39 5 -40 6 -37 40 1 19 9 44 16 55 7 11 15 44 18 74 5 49 10 58 49 93 24 21
54 46 66 57 12 10 27 39 33 62 15 53 2 83 -47 114 -18 11 -32 27 -33 35 0 22
-30 151 -41 179 -9 21 -14 23 -51 18 -50 -7 -69 -24 -88 -85 -12 -39 -20 -48
-42 -50 -37 -4 -86 23 -94 52 -7 28 9 61 43 93 12 12 23 32 23 45 0 13 11 41
25 63 35 57 35 128 0 151 -29 19 -31 35 -10 68 15 22 14 24 -23 50 -29 20 -50
26 -91 26 -52 0 -53 0 -68 40 -17 42 -36 50 -73 30 -15 -8 -22 -5 -38 17 l-20
28 -12 -27 c-7 -15 -26 -32 -41 -39 -31 -12 -35 -19 -18 -36 6 -6 9 -26 7 -44
-2 -29 -7 -34 -30 -37 -26 -3 -28 -6 -28 -52 0 -60 -14 -71 -38 -31 -16 30
-32 40 -32 22 0 -4 -27 -42 -59 -84 -33 -41 -57 -77 -55 -80 13 -12 6 -136 -9
-157 -12 -17 -13 -28 -4 -56 8 -26 7 -44 -1 -68 -12 -33 -10 -37 48 -125 59
-89 60 -92 60 -160 0 -133 -40 -249 -113 -328 -39 -42 -41 -43 -103 -43 -67 0
-104 20 -104 55 0 9 -11 38 -25 65 -20 40 -25 64 -25 129 0 62 -5 90 -23 130
-28 58 -29 149 -3 199 11 22 14 46 9 94 -5 59 -3 66 22 96 24 29 26 35 15 67
-10 29 -8 45 8 98 23 70 32 107 27 107 -2 0 -18 -20 -36 -45 -32 -44 -94 -95
-117 -95 -29 0 -23 33 15 88 24 34 50 92 67 144 31 102 66 151 101 142 17 -4
26 0 35 15 15 29 34 26 49 -6 l13 -28 14 36 c18 44 60 69 116 69 39 0 45 3 55
30 21 56 72 52 129 -10 21 -22 40 -40 44 -40 4 0 15 18 25 39 l18 40 86 -5
c47 -3 101 -7 119 -9 28 -3 32 -1 32 21 0 22 -4 24 -47 24 -30 0 -60 8 -80 20
-29 17 -33 25 -33 61 l0 42 -21 -27 c-18 -23 -27 -26 -84 -26 -64 0 -93 15
-82 43 15 40 -39 55 -83 22 -26 -19 -46 -25 -85 -25 -57 0 -106 -28 -158 -90
l-28 -33 -23 22 c-17 16 -35 21 -75 21 -49 0 -54 3 -94 46 -46 50 -32 48 -160
28 -33 -5 -39 -3 -43 14 -3 11 -17 25 -30 31 -40 18 -24 41 29 41 24 0 127
103 127 126 0 20 -30 2 -127 -77 -129 -105 -216 -168 -241 -174 -14 -3 -40
-19 -58 -34 -53 -47 -194 -52 -194 -7 0 7 18 29 40 49 22 19 40 41 40 48 0 7
-13 0 -29 -15 -21 -20 -36 -27 -51 -23 -12 3 -47 -6 -83 -24 -64 -30 -193 -66
-203 -57 -6 7 85 130 139 186 42 44 201 153 280 193 53 27 76 59 43 59 -8 0
-22 7 -31 16 -12 13 -30 15 -83 12 -57 -4 -70 -2 -89 14 l-21 20 -16 -30 c-38
-74 -83 -82 -137 -26 -49 51 -62 57 -110 44 -56 -15 -80 -8 -140 46 -43 38
-56 45 -78 39 -57 -16 -195 0 -288 32 -36 12 -44 20 -53 51 -5 20 -10 47 -10
58 0 12 -9 32 -20 45 l-19 24 -1 -31 c0 -16 -6 -38 -13 -49 -13 -17 -42 -18
-748 -12 -890 8 -1249 25 -1974 98 -482 48 -539 58 -1880 338 -689 144 -944
201 -1005 225 -19 8 -52 21 -72 30 l-37 16 -3 -48z"/>
</g>
</svg>
