<?xml version="1.0" standalone="no"?>
<!DOCTYPE svg PUBLIC "-//W3C//DTD SVG 20010904//EN"
 "http://www.w3.org/TR/2001/REC-SVG-20010904/DTD/svg10.dtd">
<svg version="1.0" xmlns="http://www.w3.org/2000/svg"
 width="1000.000000pt" height="684.000000pt" viewBox="0 0 1280.000000 1276.000000"
 preserveAspectRatio="xMidYMid meet">
<metadata>
Created by potrace 1.15, written by Peter Selinger 2001-2017
</metadata>
<g transform="translate(0.000000,1276.000000) scale(0.100000,-0.100000)"
fill="#ececec" stroke="none">
<path d="M6455 12751 c-22 -5 -34 -9 -27 -10 7 0 95 -8 195 -17 100 -9 184
-19 187 -23 3 -3 18 -12 35 -20 28 -12 28 -13 10 -23 -11 -6 -25 -17 -31 -24
-6 -7 -49 -23 -95 -35 -46 -12 -93 -30 -104 -39 -11 -10 -32 -24 -47 -31 -15
-8 -37 -30 -50 -49 -24 -35 -25 -35 -115 -41 -50 -4 -113 -14 -140 -22 -92
-29 -138 -35 -172 -21 -17 7 -38 11 -45 8 -8 -3 -17 -1 -21 5 -10 17 -36 13
-88 -13 -45 -23 -59 -25 -243 -28 -188 -3 -196 -2 -212 18 -28 35 -77 54 -114
43 -24 -6 -36 -5 -48 6 -9 8 -22 15 -28 15 -7 0 -21 9 -32 20 -23 23 -53 26
-69 6 -7 -8 -50 -33 -96 -56 -78 -38 -87 -41 -119 -30 -55 18 -184 14 -277 -8
-46 -12 -100 -24 -119 -28 -67 -13 -256 -82 -365 -134 -60 -29 -131 -61 -157
-71 -74 -29 -228 -119 -241 -140 -7 -11 -90 -60 -184 -109 -154 -79 -229 -128
-297 -196 -32 -31 -169 -113 -226 -135 -48 -18 -51 -18 -46 -2 3 10 -1 26 -9
36 -11 16 -23 18 -87 12 -40 -4 -87 -11 -104 -16 -18 -5 -41 -6 -54 -1 -21 8
-14 14 73 73 84 56 117 89 88 89 -14 0 -253 -171 -272 -194 -10 -12 -13 -23
-8 -27 5 -3 7 -14 3 -23 -6 -15 2 -13 46 9 69 35 140 54 217 60 68 4 85 -5 59
-34 -19 -21 -21 -38 -4 -43 16 -6 161 55 210 87 20 14 41 25 46 25 5 0 33 21
63 48 30 26 72 58 92 72 20 14 37 28 37 32 0 8 137 83 264 145 49 24 98 55
108 68 17 22 203 135 222 135 4 0 80 33 169 74 169 77 296 120 459 155 101 22
252 28 263 11 3 -5 33 -10 66 -10 45 0 59 3 59 15 0 14 32 35 85 55 16 6 25 6
25 0 0 -6 -6 -10 -13 -10 -16 0 -57 -45 -57 -61 0 -17 82 -5 175 26 84 29 142
29 157 1 16 -28 87 -37 266 -37 132 1 182 5 204 15 35 18 122 20 202 6 33 -6
62 -7 65 -3 13 18 130 46 206 50 134 6 142 9 162 51 19 42 32 54 51 47 6 -2
12 0 12 4 0 16 84 58 130 66 55 9 87 25 128 63 33 31 42 62 18 62 -8 0 -16 6
-19 13 -9 23 -343 53 -422 38z m-1157 -333 c-3 -7 -13 -15 -24 -17 -16 -3 -17
-1 -5 13 16 19 34 21 29 4z"/>
<path d="M8145 12513 c15 -15 175 -62 175 -52 0 4 -33 18 -72 29 -114 33 -114
33 -103 23z"/>
<path d="M6311 12341 c-12 -8 -12 -12 -2 -25 11 -13 7 -16 -26 -23 -21 -4 -93
-7 -160 -6 -119 2 -123 2 -123 -19 0 -23 67 -91 121 -122 42 -25 122 -31 139
-11 7 8 16 13 20 10 4 -3 13 2 20 10 7 8 21 15 31 15 10 0 24 9 31 20 7 11 19
20 26 20 9 0 11 7 8 20 -3 11 -8 29 -11 39 -4 13 0 20 12 23 15 3 13 7 -12 31
-31 28 -50 33 -74 18z m49 -89 c0 -24 -24 -44 -77 -68 -24 -10 -43 -21 -43
-26 0 -4 -7 -8 -15 -8 -8 0 -15 4 -15 9 0 6 -15 8 -32 5 -41 -6 -82 21 -58 36
13 9 13 10 0 10 -8 0 -33 12 -55 26 l-40 25 85 -6 c47 -3 108 -1 135 4 87 15
115 13 115 -7z"/>
<path d="M8829 12062 c10 -15 45 -56 77 -91 75 -81 80 -89 61 -108 -11 -12
-22 -13 -52 -4 -38 10 -55 8 -55 -9 0 -5 25 -28 55 -51 49 -37 69 -61 48 -58
-28 5 -53 -3 -53 -16 0 -9 10 -20 23 -26 12 -5 33 -17 47 -25 19 -11 43 -13
105 -8 43 4 87 11 96 17 12 8 25 5 52 -12 21 -13 38 -18 42 -12 3 6 11 8 18 6
7 -3 23 4 37 14 20 16 22 21 11 35 -8 9 -39 24 -69 32 -77 23 -150 72 -154
104 -2 19 -12 28 -38 36 -24 8 -40 23 -54 49 -11 22 -41 51 -75 73 -31 21 -60
42 -66 48 -5 6 -25 16 -43 22 l-33 11 20 -27z m211 -202 c0 -5 -2 -10 -4 -10
-3 0 -8 5 -11 10 -3 6 -1 10 4 10 6 0 11 -4 11 -10z m53 -30 c4 -16 116 -100
134 -100 23 0 83 -22 79 -29 -7 -10 -59 -5 -84 8 -29 16 -71 14 -88 -4 -11
-10 -36 -15 -78 -15 -74 0 -95 14 -63 41 l22 19 -35 30 c-19 17 -38 30 -42 30
-4 0 -8 5 -8 11 0 5 4 8 9 5 5 -3 22 0 39 7 47 19 109 18 115 -3z"/>
<path d="M8685 11850 c-3 -5 -25 -10 -48 -10 -23 0 -50 -7 -60 -14 -18 -14
-197 -12 -267 3 -20 5 -47 4 -60 -1 -14 -5 -38 -11 -55 -12 -43 -4 -85 -17
-85 -26 0 -4 -10 -10 -22 -13 -20 -6 -20 -8 -6 -29 9 -13 32 -27 54 -32 51
-13 51 -12 25 -40 -30 -31 -22 -42 30 -44 36 -2 41 1 37 16 -5 18 -3 18 36 -2
28 -14 67 -21 122 -24 85 -4 106 2 161 51 18 16 30 18 70 12 26 -3 58 -13 71
-22 27 -17 63 -10 44 9 -19 19 -14 23 26 24 83 1 130 14 136 37 7 27 -25 57
-60 57 -14 0 -36 14 -55 35 -32 35 -80 48 -94 25z m61 -34 c8 -8 14 -19 14
-25 0 -6 11 -13 25 -17 14 -3 22 -10 19 -15 -3 -5 6 -9 20 -9 14 0 26 -4 26
-9 0 -10 -116 -25 -129 -17 -5 3 -14 0 -20 -8 -13 -15 -86 -11 -108 6 -9 7
-28 -2 -65 -28 -48 -36 -59 -39 -128 -42 -67 -4 -81 -1 -125 23 -28 15 -57 34
-66 41 -8 8 -24 14 -35 14 -10 0 -26 5 -34 10 -13 8 -12 10 4 10 10 0 24 6 30
14 20 25 102 46 138 35 44 -12 275 -12 283 1 3 6 23 10 43 10 20 0 44 5 52 10
21 14 39 12 56 -4z"/>
<path d="M3046 11795 c-10 -8 -24 -16 -30 -18 -6 -2 -9 -7 -6 -10 3 -4 24 5
45 18 22 13 33 24 25 24 -8 0 -24 -6 -34 -14z"/>
<path d="M7938 11456 c-13 -10 -15 -15 -6 -24 17 -17 36 -15 47 7 17 31 -9 42
-41 17z"/>
<path d="M9560 11211 c0 -6 5 -11 10 -11 6 0 10 -7 10 -15 0 -8 9 -19 21 -25
16 -9 25 -8 40 6 19 17 19 18 -9 30 -52 22 -72 26 -72 15z"/>
<path d="M5653 10142 c-18 -11 -33 -58 -33 -102 0 -36 -2 -38 -37 -45 -21 -4
-42 -10 -48 -15 -5 -4 -34 -16 -63 -25 -44 -15 -55 -15 -68 -4 -28 23 -46 -15
-39 -82 6 -56 5 -56 -26 -69 -28 -12 -36 -11 -61 3 -45 26 -130 20 -219 -14
-36 -14 -57 -53 -39 -74 9 -11 9 -15 1 -15 -25 0 -111 33 -122 46 -15 18 -33
18 -48 0 -17 -20 7 -66 42 -81 l28 -12 -38 -37 c-42 -40 -140 -106 -160 -106
-6 0 -15 5 -18 10 -3 6 -21 10 -40 10 -24 0 -42 -9 -64 -31 -17 -17 -31 -26
-31 -21 0 5 -28 12 -62 14 -57 4 -64 2 -85 -21 -13 -14 -35 -50 -50 -80 -21
-42 -24 -57 -15 -71 9 -14 7 -23 -9 -41 -10 -12 -19 -33 -19 -46 0 -20 -4 -22
-25 -17 -18 4 -44 -4 -93 -29 -67 -36 -68 -36 -133 -25 -61 11 -69 10 -101
-10 -20 -12 -42 -22 -51 -22 -8 0 -17 -7 -21 -15 -3 -8 -2 -15 3 -15 11 0 32
-49 26 -60 -3 -5 -20 -12 -38 -15 -48 -11 -57 -23 -57 -76 0 -42 -4 -50 -31
-69 -16 -12 -57 -30 -91 -40 -120 -37 -133 -92 -32 -143 26 -14 30 -20 29 -54
-3 -48 -15 -78 -52 -125 -17 -20 -38 -65 -47 -100 -21 -74 -35 -88 -91 -88
-65 0 -94 -44 -97 -145 -2 -49 -7 -70 -20 -82 -10 -9 -18 -27 -18 -40 0 -19
-10 -28 -46 -43 -25 -11 -54 -20 -65 -20 -13 0 -19 -7 -19 -21 0 -56 49 -80
118 -56 46 16 56 11 67 -36 5 -18 14 -27 27 -27 18 0 19 -5 14 -72 -5 -66 -3
-78 22 -123 20 -37 34 -51 52 -53 20 -2 28 -12 38 -43 12 -40 9 -64 -8 -54
-15 9 -31 -30 -18 -43 9 -9 7 -12 -9 -12 -12 0 -24 6 -26 13 -4 8 -16 1 -36
-20 -17 -18 -35 -33 -40 -33 -12 0 -61 -58 -61 -74 0 -6 9 -19 20 -29 17 -14
19 -21 10 -38 -12 -22 -96 -63 -111 -54 -11 7 -23 -40 -14 -55 8 -12 -41 -212
-62 -254 -10 -19 -13 -42 -9 -67 4 -23 0 -55 -9 -82 -8 -25 -16 -63 -17 -86
-1 -23 -5 -41 -10 -41 -4 0 -8 -9 -8 -20 0 -12 -7 -35 -17 -53 -9 -18 -16 -50
-15 -72 1 -33 -1 -36 -8 -17 -5 12 -18 22 -29 22 -12 0 -22 -9 -26 -22 -4 -13
-21 -45 -38 -71 -27 -44 -30 -55 -28 -125 2 -82 29 -154 79 -215 17 -20 62
-28 69 -11 2 7 13 12 24 11 22 -2 22 1 9 -32 -22 -58 22 -114 61 -79 18 16 21
17 36 1 9 -9 13 -20 9 -24 -4 -4 -11 -2 -15 5 -5 9 -12 -2 -21 -33 -11 -41
-11 -47 5 -65 10 -11 24 -20 32 -20 7 0 13 -9 13 -21 0 -22 84 -110 138 -144
17 -11 56 -42 87 -69 51 -45 57 -47 85 -38 22 8 30 8 30 -1 0 -8 3 -8 11 0 8
8 19 8 39 0 28 -11 28 -12 13 -40 -10 -21 -12 -32 -4 -40 13 -13 15 -64 2 -71
-4 -3 -19 -38 -31 -77 -27 -82 -21 -102 28 -107 21 -2 38 4 52 18 27 27 35 20
22 -20 -20 -55 -6 -87 50 -115 27 -14 58 -25 68 -25 32 0 88 -43 106 -82 13
-28 20 -35 29 -28 10 8 18 4 33 -15 11 -14 27 -25 35 -25 20 0 40 -27 34 -45
-4 -8 5 -28 18 -44 14 -16 25 -36 25 -45 0 -24 34 -88 58 -110 12 -10 24 -32
27 -50 4 -17 24 -49 46 -71 29 -30 36 -44 29 -55 -22 -35 -11 -60 33 -79 23
-10 44 -14 47 -10 3 5 23 7 45 5 31 -3 48 -13 89 -55 71 -72 164 -141 192
-141 22 0 39 -15 39 -35 0 -5 25 -23 56 -39 31 -15 63 -39 70 -52 6 -13 20
-26 31 -30 24 -7 32 -43 19 -92 -13 -48 -7 -68 22 -76 38 -10 45 -7 57 29 25
74 137 81 285 16 29 -13 62 -21 79 -18 19 3 35 -2 48 -15 22 -22 65 -23 92 -3
11 8 30 15 43 15 33 0 100 36 113 60 6 11 17 20 25 20 7 0 15 5 17 11 3 9 10
9 26 0 28 -15 85 -6 131 21 36 20 72 25 107 13 17 -5 29 5 70 60 86 116 104
135 131 135 38 0 81 36 108 91 20 38 35 54 70 70 25 12 46 26 46 33 1 6 2 22
3 36 1 18 16 34 58 62 31 20 73 58 93 83 21 25 43 45 50 45 17 0 105 96 105
114 0 14 12 18 99 30 13 2 39 -2 57 -10 50 -21 58 -18 81 29 20 41 24 43 55
40 57 -7 64 -12 42 -27 -23 -17 -16 -25 29 -36 38 -8 67 3 67 26 0 8 11 19 25
24 27 10 34 30 10 30 -8 0 -25 -5 -39 -12 -21 -9 -34 -8 -63 4 -106 43 -119
41 -146 -25 -18 -41 -21 -43 -66 -24 -27 11 -44 11 -102 0 -86 -16 -87 -17
-82 -46 4 -18 -5 -32 -36 -60 -23 -20 -50 -37 -61 -37 -11 0 -20 -5 -20 -10 0
-19 -83 -101 -122 -121 -45 -23 -72 -60 -63 -88 5 -15 -2 -23 -36 -37 -29 -13
-48 -32 -67 -64 -39 -70 -61 -90 -98 -90 -35 0 -45 -10 -139 -133 -47 -62 -51
-64 -85 -60 -26 4 -52 -2 -92 -21 -57 -27 -102 -33 -113 -16 -10 16 -55 12
-55 -5 0 -8 -7 -15 -15 -15 -8 0 -21 -11 -30 -23 -17 -26 -55 -47 -86 -47 -11
0 -37 -9 -58 -20 l-39 -19 -26 24 c-31 28 -31 28 -55 16 -12 -7 -26 -6 -42 2
-13 7 -44 18 -69 26 -25 7 -65 18 -90 26 -51 15 -105 14 -135 -3 -11 -6 -27
-13 -37 -16 -9 -2 -19 -19 -23 -36 -12 -56 -29 -27 -29 50 -1 66 -3 75 -23 85
-12 7 -32 23 -43 38 -11 14 -38 34 -60 43 -22 10 -41 24 -41 31 -1 7 -2 19 -3
26 -2 18 -47 39 -73 32 -18 -4 -33 5 -69 40 -25 26 -48 44 -51 42 -5 -5 -44
33 -89 86 -25 30 -33 32 -104 23 -63 -8 -78 4 -62 46 11 31 10 33 -32 76 -24
24 -46 57 -50 74 -3 17 -19 46 -36 65 -17 19 -30 45 -30 60 0 14 -13 40 -30
59 -16 19 -27 40 -24 48 8 21 -14 56 -43 67 -14 5 -27 18 -30 29 -3 11 -17 22
-35 25 -17 4 -34 17 -40 31 -6 13 -19 26 -28 29 -10 3 -25 14 -35 25 -11 12
-31 20 -51 20 -18 0 -39 7 -48 15 -8 8 -21 15 -29 15 -18 0 -28 46 -16 78 5
13 6 35 3 49 -5 19 -11 23 -28 19 -11 -3 -27 -6 -33 -6 -7 0 -13 -7 -13 -15 0
-9 -9 -15 -25 -15 -14 0 -25 5 -25 11 0 17 32 113 43 127 15 19 18 73 5 89 -9
11 -8 21 6 44 20 33 9 59 -25 59 -10 0 -25 10 -34 23 -11 16 -18 19 -23 9 -5
-7 -22 -16 -40 -21 -29 -9 -35 -5 -94 48 -35 32 -72 61 -83 65 -30 9 -98 84
-110 120 -7 21 -18 32 -32 34 -30 4 -29 28 3 55 31 27 25 47 -26 104 -19 21
-44 57 -54 81 -15 34 -21 40 -28 28 -5 -9 -17 -16 -27 -16 -11 0 -21 -7 -25
-15 -9 -25 -23 -17 -57 32 -42 64 -59 114 -59 180 0 44 6 63 30 98 17 24 30
48 30 54 0 8 6 8 18 0 11 -7 30 -9 44 -6 24 6 25 10 18 42 -6 28 -3 40 16 67
19 25 24 44 24 90 0 46 4 62 21 79 16 16 18 23 9 29 -11 7 -11 14 0 40 9 22
10 37 2 54 -7 16 -6 31 5 57 24 58 63 215 63 256 0 38 2 40 50 57 74 27 103
82 64 121 -15 15 -15 17 1 35 13 14 22 17 35 10 21 -11 30 -4 30 27 0 16 6 23
19 23 11 0 26 3 35 6 10 4 17 -2 22 -20 3 -15 15 -31 25 -36 15 -9 20 -6 25
14 3 14 3 35 -1 47 -4 13 -8 53 -9 89 -2 73 -20 110 -53 110 -17 0 -28 11 -44
45 -18 38 -21 57 -15 110 6 59 5 64 -19 83 -14 11 -25 25 -25 31 0 7 -11 23
-24 36 -24 24 -26 24 -61 9 -40 -16 -86 -16 -92 1 -2 6 23 23 56 38 49 22 59
32 65 58 3 19 13 33 25 36 17 4 19 12 14 76 -4 61 -1 77 16 105 17 26 27 32
56 32 58 0 93 24 105 73 20 76 28 96 59 134 71 90 73 184 5 216 -70 34 -56 65
44 96 94 30 121 55 129 118 5 49 7 52 48 68 47 18 60 37 45 65 -13 24 -13 40
0 40 6 0 24 9 39 21 22 16 33 19 47 11 16 -9 16 -10 -4 -16 -24 -8 -26 -14
-13 -35 8 -12 31 -5 135 43 85 40 133 57 150 54 31 -6 51 14 43 42 -3 12 2 25
12 33 20 14 37 67 21 67 -18 0 -11 25 25 82 35 56 37 57 78 54 23 -2 53 -8 67
-14 22 -9 28 -7 51 19 27 31 53 36 92 18 19 -9 31 -7 55 5 94 49 178 123 187
166 6 27 10 31 28 25 56 -17 65 -16 86 6 27 30 28 53 0 46 -42 -11 -12 18 37
35 63 22 157 24 174 3 16 -19 46 -18 90 3 l35 18 -3 62 -4 62 39 0 c21 0 65
12 98 25 33 14 67 25 76 25 9 0 24 9 34 20 10 11 21 17 26 14 13 -8 180 -16
307 -15 73 1 119 -3 132 -11 15 -10 27 -10 50 -1 17 7 32 7 36 2 8 -13 78 -11
92 3 9 9 15 9 24 0 9 -9 8 -16 -5 -29 -11 -13 -13 -23 -6 -36 6 -9 14 -15 20
-12 5 4 28 -3 52 -14 23 -11 55 -23 72 -26 26 -6 28 -8 12 -17 -30 -17 -3 -37
42 -31 21 3 41 1 45 -5 4 -7 18 -7 42 -1 24 7 52 7 84 0 27 -6 62 -8 78 -5 39
8 72 -11 72 -41 0 -28 12 -37 53 -41 27 -2 45 -8 142 -49 44 -18 99 -81 90
-103 -5 -15 33 -77 42 -68 11 10 43 -15 43 -33 0 -22 23 -43 42 -40 7 1 29 -1
48 -4 19 -4 46 -8 60 -10 38 -4 70 -26 70 -46 0 -10 8 -21 19 -24 10 -2 30
-29 45 -61 15 -31 33 -56 41 -56 24 0 17 -28 -7 -32 -17 -2 -23 -10 -25 -33
-3 -39 -67 -100 -122 -115 -27 -7 -49 -22 -67 -46 -24 -30 -32 -35 -63 -32
-32 3 -36 1 -33 -19 2 -16 -2 -23 -14 -23 -29 0 -74 -50 -74 -83 0 -22 -4 -27
-17 -23 -20 6 -43 -32 -43 -70 0 -12 -7 -41 -16 -65 -10 -27 -18 -83 -19 -147
-3 -95 -2 -102 13 -89 10 8 25 17 34 20 11 4 15 12 12 21 -3 8 -3 20 1 26 10
16 35 -8 35 -33 0 -19 2 -20 15 -6 14 14 13 20 -7 62 -13 26 -26 47 -30 47 -4
0 -17 -17 -28 -37 l-21 -38 6 74 c3 40 12 87 20 104 8 16 12 39 9 52 -7 29 18
50 44 36 15 -8 23 -7 33 5 9 10 9 18 2 22 -42 27 1 101 51 88 23 -6 26 -3 26
19 0 19 5 25 21 25 12 0 38 17 58 39 20 21 51 43 70 50 44 14 46 14 31 -4 -14
-17 0 -20 33 -6 16 6 17 9 4 19 -12 10 -9 18 24 51 22 21 39 47 39 58 0 11 11
25 25 31 20 10 25 19 25 51 0 28 -5 41 -17 46 -10 3 -19 1 -21 -5 -3 -7 -12 5
-22 27 -10 21 -26 47 -36 58 -11 11 -25 32 -33 48 -8 15 -24 29 -35 31 -52 10
-142 27 -156 29 -8 1 -20 14 -26 28 -7 15 -26 33 -43 40 -17 8 -32 17 -32 21
-1 5 -3 13 -4 18 -1 6 -3 17 -4 25 -2 25 -70 93 -106 106 -18 7 -41 26 -51 43
-15 24 -19 27 -22 14 -4 -21 -8 -22 -67 -6 -36 10 -44 16 -40 30 4 11 -3 23
-20 34 -27 17 -55 20 -240 26 -71 3 -81 6 -93 26 -8 14 -22 22 -38 22 -21 0
-52 13 -112 46 -2 1 1 11 6 21 7 12 7 25 0 36 -8 16 -19 17 -77 11 -43 -4 -71
-3 -75 4 -4 7 -15 7 -35 -1 -15 -5 -36 -7 -46 -4 -9 4 -90 9 -179 11 -88 2
-176 7 -193 11 -30 7 -33 11 -33 45 0 42 -28 85 -47 72z m8 -115 c-8 -8 -11
-5 -12 9 -4 55 14 93 19 40 2 -21 -1 -43 -7 -49z m-756 -317 c16 -18 16 -20 2
-20 -9 0 -21 9 -27 20 -6 11 -7 20 -2 20 5 0 17 -9 27 -20z m-1664 -3723 c-8
-8 -11 -4 -11 14 0 33 14 47 18 19 2 -12 -1 -27 -7 -33z"/>
<path d="M7374 9845 c-4 -9 -2 -21 4 -27 15 -15 44 -1 40 19 -4 23 -36 29 -44
8z"/>
<path d="M12395 8670 c-3 -5 -1 -10 4 -10 6 0 11 5 11 10 0 6 -2 10 -4 10 -3
0 -8 -4 -11 -10z"/>
<path d="M7240 8466 c0 -7 35 -41 78 -74 42 -34 88 -78 102 -99 55 -83 104
-138 158 -177 31 -22 58 -43 60 -48 2 -4 31 -29 65 -56 34 -27 77 -63 95 -81
25 -26 39 -32 60 -28 19 4 50 -7 110 -39 86 -46 100 -47 132 -9 12 14 18 11
56 -26 24 -23 46 -56 50 -73 13 -61 28 -73 106 -80 40 -4 83 -14 96 -22 17
-11 27 -13 34 -6 15 15 -48 51 -89 54 -18 1 -47 2 -65 3 -30 2 -62 30 -52 46
2 5 -1 18 -8 31 -15 28 -99 118 -109 118 -4 0 -21 -11 -38 -25 -33 -28 -25
-29 -101 14 -61 34 -88 45 -111 43 -16 -1 -38 8 -55 22 -16 13 -69 58 -117
100 -49 42 -107 89 -131 105 -23 16 -63 60 -88 98 -47 70 -84 108 -174 181
-56 46 -64 49 -64 28z"/>
<path d="M12575 8140 c-3 -5 -1 -10 4 -10 6 0 11 5 11 10 0 6 -2 10 -4 10 -3
0 -8 -4 -11 -10z"/>
<path d="M8526 7663 c-4 -8 -1 -22 6 -30 10 -12 7 -13 -15 -8 -22 6 -29 2 -46
-25 l-19 -33 -4 27 c-4 31 -21 39 -26 13 -6 -32 7 -67 26 -67 10 0 26 14 35
30 10 17 24 30 32 30 23 0 127 -86 192 -158 81 -91 107 -136 105 -180 -3 -37
32 -91 90 -140 17 -14 33 -42 39 -68 6 -24 15 -47 20 -50 43 -26 5 96 -44 140
-52 48 -77 88 -77 123 0 19 -9 51 -20 72 -29 58 -173 212 -235 253 -16 10 -23
18 -15 17 22 -3 51 12 44 22 -3 5 -23 18 -44 29 -34 17 -39 18 -44 3z"/>
<path d="M1317 7593 c-4 -3 -7 -19 -7 -35 0 -16 -7 -36 -15 -44 -8 -8 -12 -21
-9 -28 3 -8 -3 -16 -14 -18 -10 -3 -21 -15 -25 -27 -4 -16 0 -22 19 -27 13 -3
31 -1 38 5 11 10 16 8 24 -5 9 -16 11 -15 22 5 6 13 9 25 6 28 -3 4 -2 11 4
18 5 6 12 37 16 68 6 51 5 57 -10 51 -9 -3 -22 -1 -30 5 -7 6 -16 8 -19 4z"/>
<path d="M12690 7559 c0 -5 5 -7 10 -4 6 3 10 8 10 11 0 2 -4 4 -10 4 -5 0
-10 -5 -10 -11z"/>
<path d="M12775 6980 c-3 -5 -2 -10 4 -10 5 0 13 5 16 10 3 6 2 10 -4 10 -5 0
-13 -4 -16 -10z"/>
<path d="M8990 6959 c0 -20 52 -79 71 -79 30 0 32 -19 5 -59 -14 -20 -26 -46
-26 -57 0 -10 -13 -64 -29 -120 -16 -55 -33 -138 -36 -182 -4 -45 -11 -82 -15
-82 -11 0 -32 -55 -29 -76 4 -30 -11 -64 -29 -64 -23 -1 -99 -70 -107 -98 -6
-22 -4 -24 37 -22 23 1 49 1 56 1 15 -1 16 -35 1 -63 l-11 -20 -22 21 c-26 25
-60 19 -51 -8 3 -11 -9 -31 -35 -56 -23 -23 -40 -48 -40 -62 0 -24 33 -48 51
-37 6 3 38 0 73 -6 60 -13 62 -14 58 -41 -4 -25 -1 -29 21 -29 29 0 44 15 49
50 4 33 42 40 58 10 9 -17 19 -21 41 -18 23 4 29 1 29 -14 0 -10 5 -26 11 -37
18 -28 3 -85 -26 -101 -14 -7 -25 -19 -25 -27 0 -7 -5 -13 -11 -13 -6 0 -9 -9
-6 -20 3 -11 1 -20 -5 -20 -6 0 -8 -6 -5 -14 7 -19 -12 -36 -41 -36 -37 0 -60
-17 -67 -52 -4 -18 -17 -45 -28 -60 -11 -15 -24 -52 -28 -82 -10 -77 -76 -172
-129 -186 -22 -6 -42 -20 -50 -34 -7 -14 -48 -59 -91 -101 -44 -42 -79 -81
-79 -87 0 -7 -14 -8 -37 -5 -72 12 -83 -33 -13 -48 27 -6 28 -8 18 -31 -9 -20
-9 -27 1 -33 7 -5 9 -11 5 -13 -9 -5 -18 -4 -84 8 -35 7 -35 7 -17 -14 18 -20
18 -21 -10 -35 -25 -13 -30 -13 -42 0 -9 10 -17 11 -24 4 -7 -7 -16 -7 -29 0
-14 8 -20 6 -24 -8 -3 -10 -9 -25 -14 -34 -12 -23 12 -54 34 -46 10 4 16 1 16
-7 0 -17 72 -76 92 -76 9 0 27 11 42 25 26 24 89 35 100 17 2 -4 -5 -27 -15
-50 -29 -62 -23 -87 21 -87 35 0 120 -46 120 -64 0 -5 -12 -23 -26 -40 -17
-20 -24 -39 -21 -52 3 -12 0 -22 -9 -26 -19 -7 -18 -42 1 -49 18 -7 19 -27 4
-55 -10 -19 -12 -19 -34 -5 -14 9 -31 16 -39 16 -8 0 -28 12 -45 26 -17 14
-38 23 -46 20 -19 -7 -19 -50 0 -70 17 -17 20 -62 5 -71 -11 -7 -6 -40 15 -96
10 -27 11 -39 2 -48 -8 -8 -4 -11 17 -11 15 0 25 -3 22 -8 -2 -4 2 -22 10 -41
14 -33 15 -33 33 -16 22 19 41 13 41 -13 0 -13 -2 -14 -9 -3 -7 10 -13 11 -30
2 -25 -14 -26 -20 -5 -50 12 -17 13 -26 5 -34 -6 -6 -11 -24 -11 -39 0 -21 5
-28 20 -28 11 0 20 -3 20 -6 0 -12 -24 -50 -37 -57 -8 -5 -11 -16 -8 -28 4
-11 0 -30 -9 -44 -15 -22 -14 -24 16 -34 26 -9 29 -13 18 -26 -7 -8 -18 -15
-25 -15 -14 0 -28 -27 -20 -40 3 -5 -4 -15 -16 -23 -11 -8 -15 -17 -9 -19 7
-2 5 -16 -7 -43 -9 -22 -18 -51 -20 -64 -1 -13 -15 -38 -31 -55 -17 -17 -37
-45 -45 -62 -9 -17 -24 -37 -33 -45 -16 -13 -16 -12 0 13 21 32 18 77 -8 147
-12 32 -17 76 -17 152 l0 108 -50 103 c-31 62 -72 127 -104 163 -37 42 -56 73
-61 101 -9 51 -18 69 -68 129 -52 62 -71 93 -79 126 -4 14 -18 31 -31 37 -18
8 -26 20 -28 44 -2 26 -10 37 -36 50 -46 22 -48 25 -28 47 15 17 15 22 2 62
-8 23 -13 46 -10 51 3 4 -5 12 -17 17 -20 7 -23 14 -20 52 3 63 -16 78 -118
88 -47 5 -89 15 -99 23 -41 36 -120 86 -155 97 -20 7 -37 18 -37 25 0 6 -7 22
-16 35 -12 16 -19 20 -27 12 -8 -8 -8 -14 1 -23 7 -7 12 -22 12 -35 0 -18 9
-25 43 -34 23 -7 51 -21 63 -31 11 -10 24 -18 28 -18 5 0 30 -16 56 -35 41
-30 60 -37 117 -42 97 -8 106 -15 100 -69 -4 -37 -1 -48 20 -70 41 -45 47 -73
22 -101 l-22 -23 22 -24 c13 -14 33 -26 45 -28 15 -2 25 -15 34 -45 8 -24 18
-43 23 -43 5 0 9 -4 9 -10 0 -12 80 -126 114 -163 33 -35 40 -51 55 -111 9
-36 26 -65 62 -104 29 -32 71 -97 99 -153 l49 -97 4 -125 c3 -86 9 -135 20
-156 17 -34 23 -31 -56 -35 -19 -2 -41 -29 -50 -63 -6 -27 8 -31 18 -5 6 16 7
15 18 -3 6 -11 12 -23 13 -27 1 -5 3 -11 4 -15 1 -5 1 -18 0 -30 -1 -13 7 -26
19 -33 18 -9 28 -4 71 36 28 26 50 52 50 58 0 6 18 33 40 60 22 26 40 56 40
66 0 10 8 35 17 56 l17 39 5 -30 c5 -21 12 -30 26 -30 16 0 20 6 18 33 -1 27
2 32 17 27 23 -7 38 12 46 64 7 41 6 43 -17 39 -14 -2 -33 -18 -48 -40 -13
-21 -26 -36 -28 -34 -7 7 22 61 39 74 22 16 23 30 2 53 -10 11 -13 23 -8 31 5
7 10 22 10 33 1 11 5 41 9 66 7 43 5 48 -15 54 l-22 7 21 22 c19 20 19 24 5
37 -13 14 -13 16 8 15 17 -1 24 6 29 29 6 31 8 29 25 -22 5 -16 8 -15 25 7 16
21 18 35 13 85 -6 59 -22 85 -51 85 -18 0 -44 -55 -36 -77 6 -15 4 -16 -8 -6
-12 10 -18 10 -28 0 -9 -9 -14 -9 -21 3 -5 8 -10 23 -10 32 0 10 -9 26 -21 37
-11 10 -24 35 -29 55 -6 28 -4 38 11 52 12 11 16 21 10 27 -5 5 -7 15 -4 23 2
7 -5 19 -16 26 -12 7 -21 18 -21 25 0 7 12 1 26 -12 15 -14 33 -25 41 -25 8 0
27 -7 42 -15 26 -13 30 -13 50 9 30 32 45 96 24 96 -12 0 -13 3 -3 14 6 8 10
25 9 38 -5 31 24 70 53 73 13 1 26 3 31 4 4 0 7 9 7 19 0 10 5 23 11 29 15 15
5 29 -27 37 -18 5 -30 2 -38 -10 -12 -15 -15 -15 -46 1 -28 15 -31 19 -19 29
17 12 11 57 -8 63 -6 2 -22 -10 -34 -26 -13 -17 -29 -31 -36 -31 -18 0 -16 35
2 50 8 7 15 21 15 31 0 11 6 19 13 19 6 0 -1 12 -16 25 -37 33 -83 32 -131 0
-33 -23 -39 -24 -52 -10 -9 8 -22 15 -29 15 -8 0 -15 12 -17 28 -2 22 -7 26
-28 24 -24 -3 -24 -3 -8 14 15 15 21 16 44 5 24 -11 31 -9 65 19 21 16 40 26
43 21 9 -14 53 0 77 25 20 21 22 28 11 45 -10 15 -10 24 -2 34 7 9 8 15 1 20
-13 8 -10 11 102 124 48 49 87 93 87 98 0 6 17 15 38 21 59 18 142 146 142
221 0 15 11 43 24 62 14 20 28 49 32 63 5 20 10 24 17 17 15 -15 64 -14 70 2
3 9 7 9 20 -2 15 -12 16 -9 15 22 -1 21 6 42 15 52 20 19 21 27 6 42 -9 9 -5
18 14 35 32 30 44 87 25 125 -9 18 -12 39 -7 55 8 32 -5 40 -40 24 -20 -9 -26
-7 -39 12 -26 39 -83 23 -108 -31 l-15 -32 7 34 c5 27 3 33 -8 28 -8 -3 -41 1
-74 9 -32 7 -67 11 -76 8 -38 -12 -38 9 0 50 22 23 41 49 44 57 4 11 11 9 30
-9 l25 -23 15 23 c20 31 31 82 23 108 -5 16 -15 20 -53 20 l-47 1 34 29 c19
16 43 30 54 32 29 4 57 56 50 95 -4 25 1 36 25 60 23 22 28 32 21 45 -13 23 4
156 29 228 11 30 22 76 26 102 4 25 16 56 26 69 34 38 21 99 -20 99 -9 0 -26
14 -38 30 -23 30 -42 39 -42 19z m-267 -2459 c-3 -11 -9 -20 -14 -20 -10 0
-12 24 -2 33 13 13 21 7 16 -13z m-57 -464 c3 -8 4 -31 2 -52 l-4 -39 -8 33
c-5 17 -12 32 -16 32 -5 0 -6 9 -3 20 6 23 21 26 29 6z m-351 -759 c-20 -11
-29 -3 -21 19 5 13 9 14 22 3 14 -11 14 -13 -1 -22z"/>
<path d="M0 6195 c0 -16 6 -25 15 -25 9 0 15 9 15 25 0 16 -6 25 -15 25 -9 0
-15 -9 -15 -25z"/>
<path d="M14 6005 c-9 -22 5 -87 17 -80 12 8 12 95 -1 95 -6 0 -13 -7 -16 -15z"/>
<path d="M8998 5989 c-21 -12 -24 -35 -5 -42 22 -8 59 12 55 30 -4 21 -26 27
-50 12z"/>
<path d="M12680 5290 c0 -5 7 -10 15 -10 8 0 15 5 15 10 0 6 -7 10 -15 10 -8
0 -15 -4 -15 -10z"/>
<path d="M100 5223 c8 -42 29 -91 61 -141 43 -67 110 -344 91 -378 -8 -14 -10
-13 -16 10 -3 14 -13 26 -22 26 -11 0 -14 -6 -9 -22 14 -48 56 -128 64 -123
18 10 22 120 7 195 -25 134 -65 263 -99 320 -19 30 -43 76 -53 102 -23 57 -34
62 -24 11z"/>
<path d="M9284 5105 c-9 -23 3 -45 26 -45 25 0 37 25 20 45 -16 19 -39 19 -46
0z"/>
<path d="M1403 4514 c-8 -21 13 -42 28 -27 13 13 5 43 -11 43 -6 0 -13 -7 -17
-16z"/>
<path d="M470 3935 c0 -10 103 -240 113 -252 20 -27 25 -11 12 35 -18 57 -18
55 -5 47 6 -4 27 -39 47 -78 67 -134 123 -203 123 -152 0 25 36 3 69 -42 17
-24 50 -57 74 -74 75 -54 337 -310 372 -363 18 -28 50 -69 71 -91 21 -22 51
-63 68 -91 45 -73 67 -100 202 -247 118 -130 174 -214 174 -265 0 -13 -4 -21
-9 -18 -5 3 -14 -1 -21 -9 -11 -13 -9 -29 9 -89 11 -41 21 -85 21 -98 0 -13
15 -49 33 -79 56 -95 68 -131 68 -219 1 -48 207 -287 224 -260 5 7 -15 36 -52
74 -89 91 -138 156 -139 185 -6 99 -20 143 -75 229 -15 24 -31 65 -35 91 -4
25 -13 63 -20 85 -17 47 -19 80 -4 56 5 -8 19 -16 30 -16 17 -1 19 3 13 20 -4
11 -7 35 -6 53 2 46 -63 141 -193 279 -60 64 -113 123 -118 132 -5 9 -21 31
-36 49 -15 17 -40 54 -55 82 -16 28 -32 51 -36 51 -4 0 -18 18 -30 40 -12 21
-25 37 -29 35 -4 -3 -23 19 -43 48 -35 53 -266 279 -362 354 -27 22 -63 56
-78 76 -29 39 -73 67 -104 67 -14 0 -36 31 -78 111 -68 126 -76 135 -103 120
-18 -9 -23 -3 -51 59 -27 61 -41 83 -41 65z"/>
<path d="M8642 3767 c-17 -23 -20 -56 -6 -68 20 -17 39 3 39 41 0 32 -18 46
-33 27z"/>
<path d="M8573 3249 c-6 -6 -21 -16 -34 -23 -27 -13 -32 -26 -19 -46 8 -12 12
-12 36 0 31 17 52 56 38 70 -7 7 -14 6 -21 -1z"/>
<path d="M8474 3120 c-11 -4 -32 -24 -47 -43 -23 -30 -24 -37 -12 -47 12 -10
21 -6 50 23 19 19 35 44 35 56 0 12 -1 21 -2 20 -2 0 -12 -4 -24 -9z"/>
<path d="M9854 3030 c-12 -5 -28 -18 -36 -28 -14 -20 -88 -42 -88 -26 0 11
-76 11 -107 0 -19 -6 -21 -11 -13 -26 14 -26 12 -37 -2 -17 -18 23 -85 7 -115
-27 -12 -15 -31 -26 -41 -26 -28 0 -34 -11 -16 -31 16 -17 15 -19 -9 -28 -14
-6 -31 -19 -37 -31 -6 -11 -18 -20 -27 -20 -10 0 -14 -6 -10 -20 4 -14 -5 -28
-30 -48 -31 -24 -35 -33 -29 -56 l7 -27 29 21 c27 19 84 33 189 44 24 3 43 -2
59 -15 14 -10 36 -19 49 -19 19 0 23 -4 18 -19 -5 -15 1 -19 34 -24 40 -5 96
-39 105 -64 6 -15 -18 -68 -40 -91 -16 -16 -18 -44 -5 -88 9 -32 5 -43 -57
-158 -14 -26 -18 -44 -12 -55 5 -9 11 -24 14 -33 7 -24 32 -23 68 4 17 12 52
23 79 26 44 4 49 3 49 -16 0 -37 -17 -68 -65 -115 -26 -26 -45 -53 -42 -60 2
-6 0 -20 -5 -30 -7 -13 -5 -26 7 -43 16 -24 15 -27 -15 -75 -18 -27 -36 -49
-41 -49 -5 0 -14 -11 -21 -25 -8 -19 -8 -28 2 -40 18 -21 37 -19 63 8 12 13
32 29 44 36 19 10 26 8 44 -10 11 -11 19 -22 17 -24 -1 -1 -33 -16 -70 -33
-74 -33 -158 -104 -158 -133 0 -11 5 -19 10 -19 7 0 8 -13 4 -35 -4 -25 -3
-35 7 -35 7 0 -12 -15 -42 -33 -121 -73 -330 -229 -340 -253 -5 -14 -21 -41
-35 -59 -41 -54 -26 -92 29 -70 12 5 17 2 17 -8 0 -9 10 -17 23 -19 16 -3 8
-8 -33 -22 -30 -11 -100 -41 -156 -67 -76 -37 -113 -61 -150 -101 -28 -29 -65
-66 -82 -81 -18 -16 -32 -33 -32 -38 0 -5 -30 -29 -67 -53 -38 -24 -90 -67
-118 -95 -27 -28 -78 -69 -112 -91 -64 -41 -87 -68 -78 -93 12 -29 -328 -160
-560 -217 -66 -16 -169 -45 -230 -65 -60 -19 -134 -41 -162 -47 -51 -12 -63
-21 -44 -32 8 -6 180 37 216 53 27 13 138 44 261 75 187 46 501 167 568 219
19 14 19 15 3 32 -17 16 -14 19 40 51 32 19 69 47 83 62 26 29 93 58 110 47 6
-3 14 4 19 17 5 13 27 38 50 56 23 18 39 37 37 41 -6 10 42 81 54 81 6 0 10 7
10 16 0 8 4 13 9 9 5 -3 29 15 52 40 29 31 71 59 127 86 107 51 279 119 301
119 9 0 22 9 29 20 18 29 -5 35 -69 20 -46 -11 -53 -11 -61 5 -8 13 -18 15
-44 10 -41 -7 -41 -3 -9 39 14 18 25 38 25 44 0 23 345 265 395 278 30 7 31
18 6 43 -11 11 -17 22 -13 25 3 3 -1 17 -8 31 -12 23 -11 28 11 51 13 14 57
41 99 61 41 19 82 38 90 43 8 4 16 15 18 24 4 20 -54 80 -68 71 -7 -4 -9 2 -4
19 5 20 2 26 -10 26 -12 0 -14 5 -6 24 6 17 4 30 -6 45 -11 15 -12 26 -4 40 6
11 9 24 8 28 -1 4 17 28 39 52 53 57 77 136 47 158 -23 17 -94 9 -147 -18 -21
-10 -39 -19 -40 -19 -2 0 -2 15 -1 33 0 17 18 65 38 105 28 56 36 81 31 103
-4 16 -11 31 -16 34 -17 11 11 46 32 40 17 -6 21 -1 18 23 -1 4 -5 6 -10 4 -6
-1 -5 6 1 17 5 11 10 45 10 77 0 56 0 57 -20 39 -16 -14 -20 -15 -20 -4 0 8 6
21 13 28 10 10 3 11 -36 6 l-49 -8 26 26 c14 14 26 31 26 36 0 25 75 121 94
121 11 0 30 10 43 22 l23 21 23 -21 c34 -32 97 -28 97 7 0 11 9 16 29 16 24 0
29 -4 28 -20 -2 -15 5 -21 26 -23 16 -2 34 1 41 7 21 17 29 -29 10 -50 -14
-16 -14 -18 2 -27 9 -5 17 -21 17 -36 0 -21 4 -26 23 -26 13 0 24 -4 24 -10 0
-5 -4 -10 -10 -10 -5 0 -10 -7 -10 -15 0 -14 28 -21 74 -16 16 1 17 -1 6 -14
-13 -16 -6 -19 35 -15 19 2 19 1 1 -13 -13 -9 -19 -26 -19 -56 0 -23 -4 -44
-8 -47 -5 -3 -9 -10 -9 -15 0 -6 6 -7 13 -3 9 6 9 4 -1 -8 -11 -14 -11 -18 1
-25 9 -4 17 -19 19 -33 2 -21 8 -25 31 -23 18 1 27 -2 24 -10 -2 -7 4 -26 14
-44 17 -30 17 -33 1 -42 -15 -9 -15 -12 7 -35 14 -14 21 -26 16 -26 -5 0 -4
-5 2 -11 14 -14 79 32 88 62 4 11 15 19 29 19 18 0 25 -7 31 -32 4 -18 7 -45
6 -59 -2 -22 6 -31 45 -54 31 -18 42 -30 34 -35 -7 -4 -14 -23 -16 -41 -2 -19
-8 -61 -14 -94 -13 -73 -18 -162 -11 -173 3 -5 16 -14 27 -20 19 -10 21 -19
19 -66 -2 -30 -8 -63 -14 -74 -6 -11 -13 -40 -16 -64 -3 -23 -8 -58 -11 -75
-8 -43 0 -42 29 5 16 24 23 50 22 77 -1 21 6 61 16 89 10 27 15 54 11 60 -3 6
-5 18 -4 27 2 10 -10 26 -26 38 -32 22 -31 16 -17 166 4 39 12 75 17 82 5 7 8
18 5 25 -2 7 3 21 11 31 15 17 14 20 -14 46 -17 16 -39 31 -50 33 -14 2 -18
10 -16 30 2 15 -6 48 -17 74 -12 26 -21 54 -21 63 0 10 -7 26 -15 37 -8 10
-15 29 -15 42 0 26 -17 28 -48 6 -31 -21 -42 -54 -29 -79 6 -11 11 -24 12 -28
0 -4 6 -12 14 -16 11 -7 11 -13 -3 -32 -9 -13 -16 -19 -16 -13 0 6 -9 20 -21
33 -11 12 -18 28 -15 36 2 7 -1 18 -7 24 -7 5 -12 27 -12 48 0 25 -6 43 -17
51 -27 20 -22 33 8 21 34 -12 67 -2 60 18 -3 8 -6 21 -6 29 0 11 -7 13 -27 8
-16 -4 -34 -11 -41 -17 -7 -5 -15 -7 -19 -3 -3 3 -1 6 5 6 7 0 12 4 12 10 0 5
19 27 43 50 32 30 39 42 29 48 -10 7 -11 20 -6 47 5 27 3 40 -7 46 -17 10 -39
-8 -39 -32 0 -11 -4 -19 -10 -19 -5 0 -18 -10 -30 -22 l-20 -22 0 37 c0 24 -5
40 -15 43 -8 4 -12 10 -9 16 3 5 12 1 20 -9 13 -17 15 -17 29 1 21 28 19 54
-7 82 -25 26 -48 31 -49 12 0 -7 -4 -3 -9 10 -6 15 -18 22 -37 23 -21 1 -23 3
-8 6 42 11 56 43 18 43 -9 0 -22 8 -29 18 -11 14 -16 15 -33 4 -17 -10 -25
-10 -41 0 -11 7 -20 18 -20 25 0 7 -4 13 -10 13 -5 0 -10 8 -10 19 0 28 -26
47 -45 31 -22 -18 -19 -51 5 -57 13 -3 20 -14 20 -28 0 -13 6 -26 13 -28 6 -3
2 -6 -10 -6 -18 -1 -23 5 -23 24 0 19 -5 25 -23 25 -13 0 -28 -5 -34 -11 -16
-16 -28 8 -12 27 13 16 13 16 -15 31 -17 9 -15 11 14 21 18 7 30 17 28 24 -7
19 -34 21 -66 6 -23 -12 -34 -12 -62 -2 -42 15 -40 15 -66 4z m21 -47 c-28
-20 -41 -16 -20 7 10 11 22 17 28 13 6 -4 3 -12 -8 -20z m110 -74 c-9 -13 -24
-11 -41 5 -10 11 -11 15 -1 19 17 6 49 -12 42 -24z m-295 5 c0 -2 -11 -9 -25
-14 -14 -5 -25 -16 -25 -25 0 -8 -9 -15 -19 -15 -22 0 -37 -30 -20 -40 6 -4
24 -3 40 3 38 15 47 2 20 -26 -13 -15 -19 -30 -15 -40 9 -24 24 -21 57 11 l30
27 -7 -30 c-4 -16 -7 -36 -8 -42 -1 -7 -6 -13 -12 -13 -5 0 -20 -10 -34 -22
l-23 -23 -18 23 c-14 20 -27 24 -72 24 -30 0 -83 -5 -119 -11 -86 -14 -86 -14
-65 9 10 11 23 20 28 20 16 0 103 58 146 98 65 61 102 88 122 89 11 1 19 0 19
-3z m130 -9 c0 -13 -24 -55 -32 -55 -19 0 -20 31 -2 45 19 14 34 19 34 10z
m53 -30 c-3 -9 -8 -14 -10 -11 -3 3 -2 9 2 15 9 16 15 13 8 -4z m-104 -57 l11
-32 -20 21 c-21 23 -26 43 -11 43 5 0 14 -14 20 -32z m501 -46 c-12 -4 -60 35
-60 50 0 5 16 -3 36 -19 20 -15 31 -29 24 -31z m-33 -49 c2 -6 -4 -13 -13 -17
-21 -8 -26 -3 -18 18 7 18 25 17 31 -1z m165 -90 c-5 -10 -7 -23 -5 -30 6 -17
-10 -23 -24 -8 -9 10 -7 17 8 34 24 26 33 27 21 4z m-32 -213 c0 -5 -5 -10
-11 -10 -5 0 -7 5 -4 10 3 6 8 10 11 10 2 0 4 -4 4 -10z m148 -40 c13 -29 10
-50 -8 -50 -4 0 -6 8 -3 19 3 10 0 22 -6 25 -12 8 -15 36 -3 36 4 0 13 -13 20
-30z m-782 -667 c-10 -10 -19 5 -10 18 6 11 8 11 12 0 2 -7 1 -15 -2 -18z"/>
<path d="M8277 2878 c-22 -23 -16 -48 10 -42 32 9 56 32 50 49 -9 21 -38 18
-60 -7z"/>
<path d="M9240 2633 c-38 -26 -50 -40 -50 -57 0 -21 8 -20 47 7 21 14 33 30
33 45 0 26 1 26 -30 5z"/>
<path d="M7636 2580 c-28 -5 -29 -6 -12 -22 21 -22 59 -23 76 -3 22 26 -5 36
-64 25z"/>
<path d="M9093 2230 c-12 -5 -27 -18 -33 -30 -9 -16 -18 -20 -38 -16 -21 5
-35 -1 -60 -23 -18 -16 -31 -33 -30 -38 2 -5 -9 -22 -24 -38 -32 -34 -33 -38
-13 -55 12 -10 24 -9 65 6 3 1 15 5 28 9 12 4 22 14 22 21 0 8 9 14 20 14 11
0 20 5 20 10 0 6 22 20 48 31 49 22 65 49 29 49 -11 0 -17 3 -13 8 8 7 13 9
46 11 19 1 28 25 13 34 -20 11 -60 14 -80 7z m-27 -97 c-10 -10 -19 5 -10 18
6 11 8 11 12 0 2 -7 1 -15 -2 -18z m-88 -53 c-9 -13 -16 -16 -23 -9 -7 7 -5
13 5 19 24 15 31 11 18 -10z"/>
<path d="M6230 2161 c0 -14 6 -19 20 -18 12 1 20 8 20 19 0 11 -7 18 -20 18
-13 0 -20 -7 -20 -19z"/>
<path d="M7002 1802 c-9 -7 -6 -15 13 -36 34 -36 89 -58 144 -56 25 1 56 1 69
1 12 -1 22 4 22 9 0 14 -33 29 -77 36 -55 8 -75 14 -105 35 -28 21 -46 23 -66
11z"/>
</g>
</svg>
