<?xml version="1.0" standalone="no"?>
<!DOCTYPE svg PUBLIC "-//W3C//DTD SVG 20010904//EN"
 "http://www.w3.org/TR/2001/REC-SVG-20010904/DTD/svg10.dtd">
<svg version="1.0" xmlns="http://www.w3.org/2000/svg"
 width="400.000000pt" height="200.000000pt" viewBox="0 0 1280.000000 1280.000000"
 preserveAspectRatio="xMidYMid meet">
<metadata>
Created by potrace 1.15, written by Peter Selinger 2001-2017
</metadata>
<g transform="translate(0.000000,1280.000000) scale(0.100000,-0.100000)"
fill="#ececec" stroke="none">
<path d="M6095 12794 c-901 -48 -1763 -273 -2547 -665 -1884 -941 -3187 -2744
-3482 -4819 -49 -341 -60 -508 -60 -910 0 -502 31 -821 124 -1280 510 -2519
2511 -4508 5030 -4999 439 -86 755 -115 1240 -115 403 0 571 11 910 60 1374
197 2629 826 3614 1810 1072 1072 1705 2428 1853 3969 24 252 24 858 0 1110
-148 1541 -781 2897 -1853 3969 -1068 1068 -2441 1710 -3959 1851 -162 15
-716 27 -870 19z m2570 -6409 l0 -3740 -482 -3 -483 -2 0 1457 c0 970 -4 1480
-11 1523 -19 120 -94 222 -205 276 -53 26 -69 29 -159 29 -177 0 -39 123
-1550 -1386 -731 -731 -1331 -1329 -1332 -1329 -2 0 -3 1425 -3 3166 0 1741 4
3164 8 3162 5 -1 177 -174 383 -383 206 -209 799 -811 1318 -1338 519 -528
961 -969 981 -982 20 -13 61 -30 90 -39 186 -55 377 40 453 226 l22 53 3 1528
2 1527 483 -2 482 -3 0 -3740z"/>
</g>
</svg>
