<?xml version="1.0" standalone="no"?>
<!DOCTYPE svg PUBLIC "-//W3C//DTD SVG 20010904//EN"
 "http://www.w3.org/TR/2001/REC-SVG-20010904/DTD/svg10.dtd">
<svg version="1.0" xmlns="http://www.w3.org/2000/svg"
 width="1000.000000pt" height="684.000000pt" viewBox="0 0 1280.000000 854.000000"
 preserveAspectRatio="xMidYMid meet">
<metadata>
Created by potrace 1.15, written by Peter Selinger 2001-2017
</metadata>
<g transform="translate(0.000000,854.000000) scale(0.100000,-0.100000)"
fill="#ececec" stroke="none">
<path d="M7803 8520 c-3 -10 -25 -29 -49 -40 -24 -12 -47 -26 -50 -31 -3 -6
-24 -21 -46 -35 -36 -23 -42 -24 -50 -10 -7 12 -21 14 -73 9 -62 -6 -66 -4
-117 30 -33 23 -64 37 -83 36 -16 0 -44 3 -62 6 -26 6 -32 4 -38 -14 -3 -12 1
-31 11 -46 17 -27 14 -36 -19 -48 -5 -1 -9 -24 -11 -50 -2 -37 1 -47 13 -47
18 -1 -39 -55 -74 -71 -11 -5 -39 -20 -61 -34 -37 -22 -49 -24 -108 -18 -61 5
-65 7 -51 23 13 15 12 18 -18 32 -17 8 -54 14 -82 13 -27 0 -77 3 -110 8 -33
6 -71 11 -85 12 -14 1 -37 7 -52 15 -24 11 -30 10 -56 -11 -17 -13 -32 -36
-36 -52 -7 -32 -32 -45 -55 -29 -37 27 -70 36 -138 36 -65 1 -73 -1 -73 -18 0
-43 -23 -92 -56 -116 -18 -14 -32 -30 -29 -37 6 -18 -34 -63 -56 -63 -11 0
-21 -9 -25 -24 -3 -14 -12 -27 -20 -30 -8 -3 -14 -19 -14 -36 0 -20 -5 -30
-15 -30 -17 0 -21 -16 -5 -22 18 -6 -1 -47 -24 -50 -15 -2 -20 -9 -18 -25 2
-17 -2 -23 -15 -23 -13 0 -19 -9 -20 -30 -1 -17 3 -30 9 -30 7 0 7 -5 -1 -14
-8 -9 -8 -16 -2 -20 6 -4 8 -13 4 -22 -3 -8 3 -21 13 -29 11 -7 16 -16 12 -20
-4 -4 2 -22 13 -41 10 -19 14 -34 9 -34 -16 0 -12 -32 5 -44 9 -6 18 -29 22
-50 5 -31 2 -42 -11 -52 -12 -8 -16 -19 -11 -33 8 -27 -25 -44 -70 -35 -25 4
-35 11 -33 23 2 10 -5 17 -18 19 -12 2 -34 16 -50 33 -21 22 -25 32 -16 41 19
19 15 34 -19 72 -49 56 -90 77 -128 66 -20 -6 -42 -5 -62 2 -22 8 -34 7 -42
-1 -6 -6 -23 -11 -38 -11 -15 0 -33 -8 -40 -19 -32 -44 -114 -29 -102 19 3 11
2 27 -1 36 -5 14 -11 13 -43 -7 -21 -12 -45 -31 -54 -42 -11 -13 -18 -16 -23
-8 -13 21 -23 11 -32 -31 -9 -42 -10 -43 -47 -40 -22 2 -48 -3 -61 -12 -28
-18 -36 -12 -36 25 0 18 -7 32 -20 39 -16 9 -20 21 -20 60 0 38 -5 54 -20 67
-11 10 -20 25 -20 34 0 9 -7 22 -15 29 -8 7 -15 19 -15 26 0 28 -36 13 -77
-33 -39 -43 -44 -46 -68 -35 -61 28 -135 -51 -135 -144 0 -19 -4 -34 -10 -34
-5 0 -10 7 -10 16 0 11 -6 13 -19 9 -17 -5 -21 2 -30 47 -6 29 -12 62 -14 73
-1 14 -11 21 -32 22 -17 1 -47 5 -68 9 -31 5 -43 2 -62 -16 -25 -23 -55 -22
-55 3 0 7 -14 26 -30 42 -20 19 -28 35 -24 47 16 52 -45 36 -71 -18 -11 -23
-32 -42 -65 -59 -63 -32 -94 -33 -85 -4 5 15 4 19 -4 14 -7 -4 -23 5 -37 20
-31 34 -44 25 -44 -31 0 -31 -6 -50 -20 -64 -11 -11 -20 -29 -20 -40 0 -27
-22 -25 -48 3 -24 25 -28 52 -11 62 17 11 28 49 17 63 -6 6 -28 12 -49 12 -21
0 -41 5 -44 10 -3 6 -17 10 -31 10 -18 0 -24 -5 -24 -22 0 -20 -1 -20 -20 -3
-17 15 -25 16 -64 6 -25 -6 -57 -11 -72 -11 -24 0 -26 3 -22 31 4 25 1 32 -19
40 -21 8 -23 15 -23 70 l0 61 -72 -7 c-47 -4 -77 -12 -85 -22 -11 -14 -18 -14
-57 -3 -24 7 -49 9 -54 6 -6 -3 -20 6 -31 21 -11 16 -26 34 -31 41 -13 14
-116 17 -125 2 -9 -15 -61 -12 -75 5 -7 8 -19 15 -26 15 -8 0 -14 10 -14 23 0
22 -2 23 -85 20 -75 -2 -86 0 -99 18 -7 11 -30 29 -50 40 -32 17 -42 18 -75 8
-32 -10 -45 -8 -84 9 l-45 20 -6 -20 c-4 -19 -9 -20 -58 -13 -29 5 -91 9 -138
9 -69 1 -93 5 -129 24 -28 15 -54 22 -70 19 -67 -13 -102 -26 -132 -50 -34
-26 -96 -32 -127 -13 -9 5 -22 0 -37 -14 -22 -20 -25 -21 -66 -7 -29 10 -51
12 -67 6 -13 -5 -48 -9 -78 -9 -68 0 -85 -9 -114 -57 -16 -27 -21 -48 -17 -75
5 -41 -4 -54 -63 -83 -19 -9 -60 -44 -90 -77 l-55 -60 -45 9 c-38 7 -45 12
-45 33 0 21 -4 25 -26 22 -14 -2 -31 3 -38 11 -12 15 -45 11 -103 -12 -33 -12
-33 -14 -12 -46 9 -13 13 -33 10 -43 -4 -11 0 -24 9 -32 21 -17 19 -30 -5 -30
-11 0 -20 -4 -20 -10 0 -5 9 -10 20 -10 17 0 19 -3 11 -17 -7 -12 -5 -20 7
-29 15 -11 15 -17 3 -56 -7 -23 -15 -60 -18 -80 -4 -33 -2 -39 20 -47 16 -6
26 -20 31 -41 4 -21 22 -46 49 -71 35 -30 44 -45 44 -70 0 -21 7 -38 21 -50
14 -11 22 -28 22 -48 0 -45 71 -151 117 -173 15 -7 28 -18 30 -24 5 -16 -39
-33 -71 -27 -46 9 -64 -42 -26 -74 11 -10 20 -24 20 -32 0 -7 8 -20 18 -27 20
-14 24 -39 25 -144 2 -131 -35 -194 -113 -196 -68 -1 -149 -31 -156 -57 -3
-12 -37 -51 -76 -87 -125 -114 -268 -260 -268 -273 0 -7 -30 -49 -68 -93 -37
-45 -78 -101 -92 -124 -14 -23 -44 -64 -67 -91 -24 -27 -51 -62 -60 -77 -10
-15 -32 -46 -50 -70 -18 -23 -40 -58 -48 -77 -16 -32 -15 -35 3 -53 35 -35 56
-204 39 -316 -5 -38 8 -66 32 -66 6 0 15 -8 20 -18 5 -10 20 -23 33 -30 19
-10 23 -21 23 -57 -1 -54 -8 -62 -33 -37 -18 18 -86 37 -108 30 -5 -2 -19 7
-32 20 -29 29 -62 29 -62 0 0 -41 -12 -67 -31 -73 -39 -13 -82 -128 -108 -289
-4 -28 -13 -52 -19 -54 -6 -2 -34 -26 -62 -53 -48 -47 -51 -53 -60 -122 -16
-121 -17 -117 36 -117 39 0 45 -2 40 -17 -5 -11 0 -23 12 -33 10 -8 29 -41 41
-72 l23 -57 49 5 c30 3 49 1 49 -6 0 -5 8 -18 18 -28 22 -23 40 -61 44 -92 3
-27 17 -29 101 -14 33 5 42 3 68 -22 27 -26 30 -34 24 -69 -6 -46 12 -82 37
-72 11 4 14 14 10 33 -4 24 -2 26 14 20 38 -16 50 -17 77 -7 20 8 27 17 27 37
0 30 29 84 45 84 6 0 15 -4 21 -9 5 -5 20 -11 34 -13 15 -2 26 -11 29 -22 3
-21 31 -46 90 -83 46 -29 65 -29 79 1 10 22 14 23 48 16 20 -5 41 -13 46 -18
7 -7 19 -7 35 -1 29 11 55 -1 88 -39 21 -24 25 -25 62 -14 60 18 101 15 120
-8 11 -12 30 -20 48 -20 17 0 36 -5 43 -12 9 -9 18 -9 37 0 14 7 33 12 42 12
9 0 28 11 42 24 25 23 30 24 94 16 72 -9 106 -33 107 -77 0 -25 11 -34 60 -48
26 -8 41 -23 65 -63 29 -51 31 -52 78 -52 26 0 57 6 70 13 34 18 87 69 87 83
0 6 7 17 15 24 8 7 15 21 15 31 0 11 7 19 15 19 9 0 26 6 38 14 22 14 162 33
287 40 36 2 85 11 109 20 24 9 80 19 125 23 99 7 110 15 174 135 40 75 51 88
73 88 14 0 34 7 45 15 10 8 35 15 55 15 34 0 69 23 69 46 0 5 13 28 29 51 l28
42 29 -30 c34 -35 54 -37 54 -5 0 16 -7 27 -20 31 -22 7 -56 52 -47 61 3 3 30
8 60 11 50 5 55 4 62 -16 16 -51 113 -46 101 5 -9 34 21 39 36 6 12 -24 18
-27 81 -29 59 -3 67 -1 67 15 0 10 6 27 14 37 13 18 16 18 33 4 34 -29 42 -29
70 0 34 35 76 47 93 26 9 -10 31 -15 73 -15 62 0 127 -28 127 -54 0 -25 40
-65 73 -71 55 -12 77 -31 77 -70 0 -38 10 -44 30 -20 19 23 40 18 40 -10 0
-28 16 -31 44 -10 11 8 35 15 53 15 28 0 33 -4 33 -23 0 -13 -9 -32 -20 -42
-19 -17 -27 -45 -14 -45 3 0 19 9 35 21 36 26 53 17 45 -25 -5 -25 -2 -37 13
-50 21 -19 26 -15 35 31 4 17 18 39 32 48 22 14 27 14 57 -1 17 -10 59 -22 92
-28 l60 -11 5 -50 c6 -62 38 -117 62 -109 10 3 31 -5 47 -17 25 -18 33 -20 46
-9 8 7 15 18 15 25 0 13 21 25 45 25 8 0 17 -15 20 -37 12 -67 15 -73 43 -73
l26 0 -28 -29 c-31 -32 -32 -66 -2 -66 29 0 30 -19 2 -52 -22 -26 -24 -37 -20
-86 5 -60 -14 -107 -42 -107 -8 0 -14 -6 -14 -14 0 -26 12 -46 27 -46 9 0 14
-9 13 -22 -1 -13 -2 -32 -1 -42 1 -18 2 -18 21 -1 19 18 20 17 20 -4 0 -19 2
-20 20 -9 17 11 22 10 30 -2 5 -8 10 -25 10 -37 0 -16 6 -23 19 -23 16 0 20
-8 23 -37 3 -35 6 -38 33 -38 25 0 30 4 33 27 2 20 10 30 28 34 32 8 36 4 45
-53 6 -37 4 -51 -8 -60 -11 -9 -13 -23 -8 -67 7 -55 7 -56 -19 -56 -30 0 -29
1 -16 -36 8 -21 14 -24 22 -16 7 7 21 12 31 12 18 0 19 -5 13 -62 -4 -36 -13
-68 -22 -74 -22 -17 -17 -27 12 -21 16 3 28 0 31 -9 3 -8 16 -14 30 -14 18 0
27 -8 35 -31 9 -27 14 -30 42 -26 17 2 38 7 48 11 12 6 18 0 23 -23 4 -21 13
-31 25 -31 21 0 23 -12 23 -135 0 -101 -9 -142 -35 -148 -20 -6 -20 -8 -6 -29
8 -13 27 -24 42 -26 14 -2 26 -9 26 -15 0 -7 23 -27 50 -45 28 -18 50 -37 50
-42 0 -6 16 -10 35 -10 22 0 35 -5 35 -13 0 -23 25 -67 38 -67 7 0 13 14 13
33 1 28 3 26 13 -18 9 -36 17 -51 32 -54 32 -6 46 -23 40 -52 -4 -20 2 -33 25
-55 22 -21 28 -35 24 -51 -9 -36 2 -27 31 25 15 26 40 68 57 95 23 37 28 55
23 78 -5 25 -3 29 7 21 10 -8 20 -2 41 24 36 46 44 93 20 133 -17 29 -17 31 1
51 10 11 27 20 38 20 11 0 45 8 76 19 103 34 190 52 209 42 28 -15 86 -16 117
-3 42 18 88 80 80 109 -3 14 -1 22 5 21 5 -2 16 8 23 21 6 14 19 26 27 28 9 3
11 1 5 -4 -6 -4 -19 -33 -28 -63 -10 -30 -27 -65 -39 -77 l-21 -23 24 0 c14 0
30 -5 37 -12 9 -9 17 -7 35 10 28 26 62 28 117 6 37 -15 43 -15 75 0 27 13 36
24 41 52 4 22 2 40 -5 47 -22 22 -12 73 24 118 41 52 44 76 10 89 -30 11 -32
31 -5 55 11 10 20 13 20 7 0 -6 -4 -14 -10 -17 -18 -11 -10 -34 13 -37 31 -4
35 -44 7 -73 -32 -34 -43 -93 -25 -130 8 -16 20 -50 27 -75 12 -42 15 -45 48
-45 28 -1 38 -6 48 -29 10 -19 19 -26 30 -21 10 4 31 9 48 12 27 5 32 2 38
-21 4 -15 4 -32 0 -37 -10 -18 31 -48 56 -42 16 4 21 3 16 -5 -10 -16 -63 -15
-122 3 -27 8 -80 15 -119 15 -38 0 -92 8 -120 16 -27 9 -92 19 -142 23 l-93 6
43 -43 43 -43 30 17 c28 16 32 16 97 -11 38 -15 77 -25 88 -22 40 11 67 -55
35 -83 -8 -6 -46 -16 -85 -22 -84 -12 -111 -28 -95 -55 14 -24 57 -28 86 -9
22 14 25 14 41 -4 10 -12 29 -20 47 -20 19 0 33 -7 40 -20 6 -12 30 -25 55
-32 34 -9 48 -20 62 -45 13 -24 30 -38 63 -49 25 -9 62 -22 83 -30 48 -18 71
-18 86 0 14 17 84 27 211 31 124 3 120 2 120 23 0 30 12 34 36 11 28 -26 47
-20 75 23 l21 33 -6 -49 c-6 -47 -5 -48 12 -33 27 25 38 21 50 -15 6 -21 10
-26 11 -13 1 16 6 14 39 -17 20 -19 51 -38 68 -41 29 -5 31 -4 26 19 -3 18 0
24 13 24 14 0 15 3 6 14 -9 11 -7 19 14 40 l25 25 16 -24 c11 -16 14 -34 9
-55 -5 -24 -3 -35 12 -46 13 -11 14 -17 6 -20 -7 -3 -13 -19 -13 -34 0 -27 3
-29 42 -32 49 -4 59 -20 23 -36 -15 -7 -25 -20 -25 -32 0 -21 -15 -27 -25 -10
-10 16 -33 12 -56 -11 -12 -12 -27 -18 -36 -15 -9 4 -38 -8 -67 -28 -88 -58
-122 -71 -151 -58 -22 10 -25 9 -25 -6 0 -12 -22 -29 -67 -51 -87 -42 -193
-118 -193 -137 0 -7 -8 -14 -18 -14 -27 0 -130 -70 -177 -119 -36 -39 -38 -43
-23 -55 13 -9 14 -16 6 -24 -13 -13 14 -26 74 -37 28 -5 43 -1 73 19 42 29 85
33 147 14 31 -9 44 -9 59 0 10 7 21 12 24 12 8 0 6 -30 -2 -30 -5 0 -13 -4
-20 -8 -15 -9 107 -141 152 -165 28 -14 33 -14 65 4 19 10 42 18 51 19 9 0 19
9 22 20 4 16 14 20 49 20 41 0 43 -2 45 -30 3 -38 -18 -48 -52 -26 -21 14 -24
14 -19 1 4 -8 10 -15 15 -15 5 0 20 -19 35 -41 14 -23 34 -44 45 -46 20 -6 25
-18 10 -27 -5 -4 -5 -22 0 -43 17 -74 11 -130 -16 -155 -22 -21 -25 -32 -27
-118 -3 -94 -3 -95 -33 -109 -16 -8 -40 -22 -52 -31 l-22 -17 37 -36 c26 -25
50 -38 81 -43 36 -6 45 -12 56 -39 19 -44 73 -72 117 -59 18 6 48 7 66 3 34
-7 109 8 149 29 11 7 26 25 31 42 8 22 17 30 36 30 24 0 56 23 56 41 0 5 11 9
24 9 18 0 26 7 31 28 3 15 24 55 47 89 50 77 96 102 255 138 136 30 151 31
179 4 28 -26 40 -19 64 37 14 31 29 49 55 61 20 10 35 24 35 34 0 21 32 33 62
24 17 -6 20 -4 15 9 -5 12 1 20 19 26 22 9 24 13 14 26 -10 11 -10 20 -1 37
19 36 67 57 129 57 66 0 105 -20 148 -74 31 -39 54 -45 74 -21 11 14 14 13 25
-2 11 -15 14 -15 41 6 19 15 36 20 52 16 24 -6 24 -4 19 29 -3 20 -2 36 4 36
5 0 9 -10 9 -22 0 -39 14 -51 51 -45 19 3 63 11 99 17 35 6 70 16 76 23 17 18
-10 77 -35 77 -11 0 -23 5 -26 10 -4 6 7 10 24 10 30 0 41 13 21 25 -7 4 -7
12 0 25 5 10 10 28 10 39 0 11 9 25 20 31 13 7 20 21 20 40 0 35 1 35 42 14
31 -16 33 -16 50 6 16 20 16 24 3 50 -13 25 -22 29 -72 35 -32 3 -73 13 -92
23 -32 16 -34 15 -47 -3 -12 -17 -14 -17 -14 -2 0 20 4 19 -80 3 -52 -10 -67
-17 -77 -36 -16 -33 -41 -50 -74 -50 -36 0 -79 36 -79 66 0 32 -18 31 -26 -1
-3 -14 -15 -30 -25 -36 -10 -5 -25 -22 -33 -38 -17 -32 -105 -81 -145 -81 -48
0 -141 80 -196 169 -26 43 -118 165 -139 186 -19 20 28 -51 74 -110 25 -33 56
-76 68 -95 11 -19 48 -62 81 -95 34 -33 61 -62 61 -66 0 -4 -8 -9 -17 -12 -10
-2 -25 -8 -35 -12 -11 -4 -18 0 -22 12 -8 25 -97 73 -135 73 -16 0 -34 6 -40
14 -8 9 -24 12 -50 9 -44 -6 -65 12 -38 32 10 7 17 16 17 20 0 5 16 22 35 40
l36 31 -16 40 c-9 21 -20 48 -25 59 -5 11 -10 29 -12 40 -2 14 -12 21 -36 23
-28 3 -32 6 -26 24 5 18 3 20 -19 14 -24 -6 -27 -3 -33 29 -7 39 -23 44 -64
20 -27 -15 -70 -20 -70 -7 0 4 14 20 30 35 33 31 34 35 21 56 -8 12 -14 13
-35 3 -24 -11 -26 -10 -26 11 0 29 18 47 47 47 13 0 23 5 23 10 0 26 -83 -10
-132 -57 -42 -41 -71 -42 -39 -1 12 14 21 31 21 37 0 6 11 16 25 21 16 6 23
14 19 25 -3 8 -1 15 5 15 20 0 11 29 -14 46 -30 20 -40 14 -29 -18 9 -28 7
-34 -12 -30 -8 2 -14 -4 -14 -11 0 -8 -7 -20 -15 -27 -16 -13 -19 -6 -16 31 1
9 -5 22 -14 29 -8 7 -15 9 -15 4 0 -5 -16 16 -35 46 -31 49 -35 53 -41 33 -8
-29 -32 -30 -43 -1 -7 19 -8 19 -14 4 -7 -17 -9 -16 -25 4 -10 12 -30 24 -46
25 -22 3 -25 1 -15 -11 24 -29 -9 -12 -41 21 -27 28 -41 35 -65 33 -26 -3 -30
-7 -27 -28 2 -19 1 -22 -7 -10 -8 12 -12 10 -20 -10 l-10 -25 0 27 c-1 16 -10
34 -25 45 -21 16 -22 20 -10 39 13 18 12 23 -7 40 -22 19 -22 19 -17 -9 3 -15
1 -30 -4 -33 -14 -9 -58 24 -68 52 -5 13 -14 24 -20 24 -5 0 -10 5 -10 12 0 6
3 8 7 5 3 -4 15 0 25 10 10 9 18 13 18 8 0 -4 7 -2 15 5 12 10 18 10 30 0 8
-7 34 -14 57 -16 47 -4 69 -21 94 -72 13 -27 19 -32 22 -19 4 20 20 23 28 3 3
-7 16 -14 28 -14 22 0 23 2 10 26 -9 18 -10 31 -2 45 13 26 27 6 20 -31 -4
-22 -2 -25 8 -15 11 10 10 23 -4 67 -31 98 4 97 50 -1 14 -29 30 -53 35 -53 5
0 8 -3 8 -8 -1 -4 0 -18 1 -32 2 -24 2 -24 11 5 5 17 6 37 2 45 -4 8 -8 26 -9
40 0 14 -5 34 -9 44 -6 13 -5 17 3 13 6 -4 13 -21 17 -38 4 -17 14 -33 23 -36
10 -4 36 -20 59 -36 45 -32 63 -29 63 9 0 22 3 23 20 14 15 -8 20 -21 20 -50
0 -42 -15 -62 -23 -30 -6 24 -25 26 -33 5 -6 -14 -8 -14 -18 1 -11 14 -15 15
-34 3 -12 -8 -22 -23 -21 -34 0 -18 1 -18 9 3 5 12 13 22 18 22 11 0 3 -58 -9
-66 -15 -9 -10 -22 11 -29 11 -3 20 -15 20 -26 0 -10 5 -19 10 -19 6 0 10 4
10 9 0 5 14 11 30 15 39 7 62 58 64 136 1 52 2 55 26 52 14 -1 34 -3 45 -3 10
0 25 -5 32 -10 16 -14 33 -3 33 21 0 27 68 70 120 77 29 4 47 14 63 35 12 16
37 44 55 63 34 36 39 54 21 86 -18 35 -4 42 28 15 28 -23 31 -30 23 -52 -14
-36 -13 -42 11 -54 17 -9 25 -8 42 7 14 13 18 14 13 3 -4 -8 0 -6 8 4 9 11 13
22 8 25 -16 13 -51 99 -56 141 -7 59 -6 139 3 190 4 21 29 -59 35 -110 4 -35
19 -86 33 -114 20 -40 23 -54 14 -68 -6 -10 -7 -18 -2 -18 5 0 15 16 22 35 13
36 29 47 29 20 0 -22 63 17 130 80 30 28 80 67 110 86 52 32 60 34 161 37 88
3 109 1 122 -13 28 -28 21 -70 -19 -110 -20 -20 -34 -38 -31 -41 8 -9 77 79
77 98 0 53 58 115 145 154 77 36 190 40 224 10 12 -11 21 -29 21 -40 1 -13 12
3 29 39 29 63 79 115 110 115 10 0 30 9 44 20 14 11 28 20 31 20 4 0 24 12 46
26 26 17 46 24 59 19 25 -8 45 -41 37 -61 -11 -28 3 -12 69 82 85 119 98 128
170 119 39 -4 71 -2 111 10 36 10 71 14 99 10 24 -4 51 -2 62 4 29 15 66 -13
60 -46 -4 -23 -2 -22 34 13 33 32 39 44 44 98 6 54 11 65 36 82 18 11 29 28
29 42 0 19 -5 22 -40 22 -38 0 -52 12 -30 25 6 3 10 15 10 26 0 10 6 19 14 19
22 0 29 35 21 111 -5 48 -4 69 4 69 6 0 11 7 11 15 0 8 7 15 15 15 8 0 15 9
15 20 0 16 7 20 35 20 24 0 35 5 35 15 0 12 13 15 60 15 47 0 60 3 60 15 0 8
7 15 15 15 8 0 15 7 15 15 0 18 31 20 48 3 23 -23 39 26 33 103 -1 20 4 28 20
32 14 4 20 11 16 20 -10 26 16 37 91 37 54 0 78 -4 89 -16 12 -12 27 -14 57
-9 23 3 45 10 51 16 17 17 94 11 112 -11 13 -15 20 -17 31 -8 10 9 20 8 42 -5
23 -14 37 -16 70 -8 23 5 57 7 75 4 29 -5 34 -2 49 27 9 18 16 43 16 54 0 12
4 27 9 35 8 13 4 40 -14 84 -6 14 -2 17 24 17 27 0 30 3 23 16 -7 12 -2 29 14
58 13 22 24 49 24 59 0 9 5 17 10 17 6 0 10 7 10 15 0 9 11 20 25 25 20 8 25
16 25 45 0 43 -22 55 -50 30 -11 -10 -20 -14 -20 -8 0 5 -12 15 -26 21 -30 14
-24 28 16 37 17 4 30 12 30 20 0 18 -39 103 -50 110 -5 3 -8 28 -7 56 2 61
-16 79 -79 79 -49 0 -57 12 -38 59 8 18 14 47 14 63 0 31 15 66 35 83 7 6 15
22 19 38 8 32 15 33 66 7 22 -11 47 -20 57 -20 27 0 86 76 78 100 -8 26 -20
25 -39 -1 -13 -19 -18 -20 -47 -10 -17 6 -44 11 -59 11 -29 0 -60 27 -60 53 0
18 -46 57 -67 57 -10 0 -13 9 -11 28 3 23 8 27 38 29 19 2 60 6 90 9 l55 6 35
64 c19 35 40 64 47 64 8 0 29 16 47 36 19 20 38 34 43 31 5 -3 15 -2 22 2 10
7 10 13 2 29 -6 11 -11 36 -11 55 0 28 -7 39 -32 57 -42 29 -78 84 -78 119 0
29 27 64 70 92 21 14 23 19 12 32 -19 22 -85 15 -155 -17 -70 -32 -87 -32
-119 -3 -14 12 -39 29 -55 38 -27 15 -56 75 -58 118 0 9 -22 20 -54 29 -43 12
-60 13 -86 3 -19 -6 -45 -9 -59 -5 -31 7 -66 53 -66 86 0 12 -9 34 -20 48
l-20 25 -34 -39 c-23 -27 -43 -40 -63 -42 -15 -1 -40 -5 -55 -9 -24 -6 -28 -4
-36 27 -6 24 -15 34 -32 36 -29 5 -67 28 -98 60 -18 19 -22 31 -17 53 4 18 2
29 -4 29 -6 0 -11 -7 -11 -15 0 -11 -11 -15 -43 -14 -24 1 -49 -1 -56 -5 -7
-5 -22 1 -36 14 -16 15 -30 20 -44 15 -25 -8 -61 26 -61 58 0 37 -16 54 -38
41 -10 -7 -30 -10 -44 -7 -34 6 -38 -3 -26 -59 10 -40 8 -49 -8 -70 -11 -14
-25 -23 -31 -21 -7 3 -23 -3 -35 -11 -28 -20 -52 -21 -45 -1 13 32 -103 148
-169 169 -12 4 -40 35 -63 70 -37 57 -41 71 -41 125 0 53 -2 61 -19 61 -51 0
-109 87 -91 136 10 24 9 26 -12 21 -83 -20 -101 -28 -118 -50 -25 -32 -91 -54
-199 -68 -47 -5 -107 -19 -133 -31 -44 -19 -100 -69 -109 -97 -3 -9 -13 -9
-37 0 -25 9 -32 16 -29 30 6 24 -9 35 -56 44 -21 4 -41 14 -44 22 -4 11 -12 8
-33 -12 -16 -15 -36 -25 -45 -23 -18 3 -21 8 -44 58 -22 48 -37 68 -69 95 -32
27 -36 28 -113 22 -44 -4 -85 -10 -92 -14 -7 -4 -20 -6 -30 -5 -12 2 -21 -6
-28 -27 -11 -32 -49 -51 -104 -51 -37 0 -45 13 -45 66 0 27 -5 36 -22 43 -47
18 -101 111 -103 178 0 35 4 44 23 52 20 9 22 16 17 45 -4 20 -2 36 4 40 20
12 12 42 -14 54 -18 9 -25 19 -25 41 0 16 -5 33 -11 37 -6 3 -9 20 -7 36 4 23
-1 33 -23 49 -24 17 -27 23 -19 45 6 14 8 30 4 35 -3 5 2 9 10 9 21 0 41 39
27 53 -14 14 -96 13 -114 -1 -17 -14 -37 3 -37 30 0 10 -7 30 -16 43 -10 15
-16 46 -16 75 0 46 -2 50 -23 50 -13 0 -25 -6 -27 -12 -4 -10 -11 -10 -33 0
-25 12 -32 11 -56 -7 -16 -12 -35 -21 -43 -21 -8 0 -16 -5 -18 -12 -5 -15 -97
-12 -115 4 -7 6 -13 21 -13 34 0 27 -36 52 -53 35 -11 -11 -48 -7 -109 11 -31
9 -42 8 -63 -6 -26 -17 -36 -15 -67 12 -17 14 -16 18 18 59 39 47 36 65 -13
84 -24 9 -31 33 -13 44 6 3 10 14 10 25 0 10 7 20 15 24 17 6 21 66 5 66 -6 0
-17 15 -25 33 -8 17 -14 28 -15 23 0 -6 -11 6 -25 24 -14 19 -38 45 -53 56
-15 12 -24 25 -20 29 7 7 20 10 143 35 90 18 108 27 99 48 -4 9 -9 34 -12 54
-5 42 -58 98 -92 98 -11 0 -20 6 -20 13 0 7 -20 35 -45 60 -25 26 -45 50 -45
54 0 3 -7 11 -16 17 -20 15 -23 108 -3 132 12 14 10 19 -14 38 -15 12 -27 29
-27 39 0 9 -7 17 -15 17 -8 0 -15 6 -15 13 0 7 -10 17 -22 22 -16 7 -25 21
-28 45 -4 26 -11 36 -30 40 -14 3 -26 14 -29 25 -2 11 -7 25 -12 31 -15 18
-87 5 -153 -27 -77 -37 -90 -37 -83 0 6 28 5 29 -46 34 -28 2 -61 0 -73 -5
-15 -7 -30 -6 -52 6 -41 21 -63 20 -69 -4z m487 -6886 c13 -33 13 -54 0 -54
-5 0 -10 9 -10 21 0 11 -5 29 -10 40 -8 13 -7 19 0 19 6 0 15 -12 20 -26z
m-30 -16 c0 -19 -2 -20 -10 -8 -13 19 -13 30 0 30 6 0 10 -10 10 -22z m274 0
c3 -13 6 -29 6 -35 0 -19 -45 -16 -61 4 -12 15 -12 16 3 10 22 -8 42 15 26 31
-9 9 -8 12 4 12 9 0 18 -10 22 -22z m-174 -7 c0 -4 -7 -16 -15 -27 -14 -18
-14 -17 -15 13 0 25 4 31 15 27 8 -4 15 -9 15 -13z m58 -56 c17 -38 14 -43 -8
-15 -21 27 -25 40 -12 40 5 0 14 -11 20 -25z m282 -15 c0 -5 -8 -10 -17 -10
-15 0 -16 2 -3 10 19 12 20 12 20 0z m-450 -31 c0 -5 -4 -9 -10 -9 -5 0 -10 7
-10 16 0 8 5 12 10 9 6 -3 10 -10 10 -16z"/>
<path d="M10366 2304 c-10 -14 -16 -28 -13 -30 2 -3 12 7 21 22 10 14 16 28
13 30 -2 3 -12 -7 -21 -22z"/>
<path d="M9303 1910 c-6 -16 -10 -30 -7 -30 2 0 10 14 19 30 9 17 12 30 7 30
-4 0 -13 -13 -19 -30z"/>
<path d="M8185 1840 c-3 -5 1 -10 10 -10 9 0 13 5 10 10 -3 6 -8 10 -10 10 -2
0 -7 -4 -10 -10z"/>
<path d="M9205 1789 c-27 -16 -57 -32 -65 -36 -23 -11 -43 -33 -36 -40 7 -8
81 25 112 50 19 15 53 61 42 56 -2 -1 -25 -14 -53 -30z"/>
<path d="M8965 1741 c6 -29 -14 -58 -23 -33 -2 7 -17 12 -32 12 l-29 0 21 -40
c22 -41 38 -52 38 -25 0 21 19 19 26 -2 3 -10 11 -30 18 -44 8 -15 12 -39 10
-55 -1 -15 -5 -51 -9 -79 -5 -48 -5 -49 11 -27 9 12 22 22 28 22 7 0 27 -38
45 -84 18 -47 42 -93 54 -103 l21 -18 -21 35 c-28 47 -107 244 -121 300 -6 25
-14 73 -18 108 -3 34 -11 62 -16 62 -5 0 -7 -13 -3 -29z"/>
</g>
</svg>
